<svg width="32" height="32" viewBox="0 0 32 32" fill="none" xmlns="http://www.w3.org/2000/svg">
<path d="M26.2199 22.4146C25.8507 23.2753 25.3945 24.096 24.8585 24.864C24.1425 25.8866 23.5545 26.5933 23.1039 26.9866C22.4039 27.6293 21.6519 27.96 20.8479 27.9786C20.2719 27.9786 19.5759 27.8146 18.7652 27.4813C17.9519 27.1493 17.2052 26.9866 16.5212 26.9866C15.8052 26.9866 15.0372 27.1493 14.2145 27.4813C13.3932 27.8146 12.7292 27.9893 12.2212 28.0053C11.4519 28.0386 10.6825 27.7 9.91586 26.9866C9.42653 26.56 8.81453 25.8266 8.07986 24.7893C7.2932 23.684 6.64653 22.3973 6.13986 20.9346C5.5972 19.352 5.3252 17.8213 5.3252 16.3386C5.3252 14.6413 5.69186 13.176 6.42653 11.9493C6.98219 10.9859 7.77659 10.1819 8.7332 9.61462C9.67649 9.04884 10.7533 8.7442 11.8532 8.73195C12.4665 8.73195 13.2705 8.92128 14.2665 9.29462C15.2625 9.66795 15.9025 9.85728 16.1812 9.85728C16.3919 9.85728 17.0999 9.63462 18.3052 9.19328C19.4425 8.78395 20.4025 8.61462 21.1892 8.68128C23.3225 8.85328 24.9239 9.69328 25.9892 11.208C24.0825 12.364 23.1399 13.9813 23.1585 16.0573C23.1745 17.6746 23.7625 19.02 24.9145 20.088C25.4238 20.5753 26.0181 20.9653 26.6679 21.2386C26.5265 21.648 26.3772 22.0386 26.2199 22.4146ZM21.3305 3.17328C21.3305 4.43995 20.8665 5.62395 19.9452 6.71862C18.8305 8.01995 17.4839 8.77328 16.0239 8.65462C16.0048 8.49534 15.9954 8.33504 15.9959 8.17462C15.9959 6.95728 16.5239 5.65595 17.4665 4.59062C17.9359 4.05195 18.5332 3.60262 19.2572 3.24528C19.9799 2.89328 20.6625 2.69862 21.3052 2.66528C21.3225 2.83595 21.3305 3.00528 21.3305 3.17328Z" fill="white"/>
</svg>
