<svg width="32" height="32" viewBox="0 0 32 32" fill="none" xmlns="http://www.w3.org/2000/svg">
<path d="M16.001 14.283H27.329C27.445 14.883 27.513 15.574 27.516 16.28V16.283L27.518 16.505C27.518 18.636 26.991 20.644 26.061 22.406L26.094 22.337C25.1783 24.0675 23.7897 25.5022 22.09 26.474L22.039 26.501C20.1921 27.5324 18.1028 28.0503 15.988 28.001H16H15.956C14.284 28.001 12.693 27.653 11.252 27.026L11.328 27.056C8.426 25.837 6.164 23.574 4.974 20.75L4.945 20.673C4.347 19.294 4 17.688 4 16.001C4 14.314 4.348 12.708 4.975 11.251L4.945 11.329C6.164 8.427 8.427 6.165 11.251 4.975L11.328 4.946C12.7883 4.31775 14.3623 3.99643 15.952 4.002H16.003H16L16.199 4C19.244 4 22.01 5.197 24.052 7.147L24.048 7.143L20.782 10.284C20.1488 9.6685 19.3982 9.18664 18.575 8.86711C17.7518 8.54757 16.8727 8.39688 15.99 8.424H15.999H15.952C14.6436 8.42199 13.3598 8.77969 12.241 9.458L12.273 9.44C10.027 10.798 8.548 13.228 8.548 16.002C8.548 18.776 10.027 21.206 12.239 22.545L12.273 22.564C13.3835 23.2323 14.6559 23.5837 15.952 23.58H16.002H15.999H16.082C16.946 23.58 17.777 23.443 18.556 23.188L18.5 23.204C19.1801 22.9964 19.8201 22.6752 20.393 22.254L20.376 22.266C20.8522 21.9021 21.2786 21.4771 21.644 21.002L21.656 20.986C21.968 20.593 22.238 20.145 22.446 19.665L22.461 19.626C22.6202 19.2455 22.7363 18.8484 22.807 18.442L22.812 18.407H16.001V14.283Z" fill="white"/>
</svg>
