<svg width="43" height="43" viewBox="0 0 43 43" fill="none" xmlns="http://www.w3.org/2000/svg">
<g opacity="0.6">
<path d="M21.5 41.3748C32.6268 41.3748 41.65 32.3797 41.65 21.2799C41.65 10.18 32.6268 1.18496 21.5 1.18496C10.3732 1.18496 1.35 10.18 1.35 21.2799C1.35 32.3797 10.3732 41.3748 21.5 41.3748Z" stroke="#0B2E4E" stroke-width="1.3"/>
<path d="M20.9568 24.2348H21.1068V24.0848V15.5681H29.6402C31.9564 15.5681 33.8318 17.4404 33.8318 19.7515V29.3515H31.961V26.2515V26.1015H31.811H12.2735H12.1235V26.2515V29.3515H10.2527V13.4015H12.1235V24.0848V24.2348H12.2735H20.9568ZM31.811 24.2348H31.961V24.0848V19.7515C31.961 18.4767 30.9167 17.4348 29.6402 17.4348H23.1277H22.9777V17.5848V24.0848V24.2348H23.1277H31.811ZM19.7214 19.7515C19.7214 21.4667 18.3344 22.8515 16.6152 22.8515C14.8959 22.8515 13.5089 21.4667 13.5089 19.7515C13.5089 18.0362 14.8959 16.6515 16.6152 16.6515C18.3344 16.6515 19.7214 18.0362 19.7214 19.7515ZM17.8506 19.7515C17.8506 19.0725 17.2947 18.5181 16.6152 18.5181C15.9356 18.5181 15.3797 19.0725 15.3797 19.7515C15.3797 20.4304 15.9356 20.9848 16.6152 20.9848C17.2947 20.9848 17.8506 20.4304 17.8506 19.7515Z" fill="#0B2E4E" stroke="white" stroke-width="0.3"/>
</g>
</svg>
