<svg width="43" height="43" viewBox="0 0 43 43" fill="none" xmlns="http://www.w3.org/2000/svg">
<g opacity="0.6">
<path d="M21.5 41.5398C32.6268 41.5398 41.65 32.5448 41.65 21.4449C41.65 10.3451 32.6268 1.35 21.5 1.35C10.3732 1.35 1.35 10.3451 1.35 21.4449C1.35 32.5448 10.3732 41.5398 21.5 41.5398Z" stroke="#0B2E4E" stroke-width="1.3"/>
<g clip-path="url(#clip0_220_1750)">
<path d="M29.138 31.8354C29.0282 31.9529 28.8671 32.0199 28.6961 32.0199H14.3042C14.1332 32.0199 13.9721 31.9529 13.8623 31.8354H29.138ZM29.138 31.8354C33.7991 26.8598 33.9647 20.9454 29.5821 16.0143L29.138 31.8354ZM28.6961 33.0199H14.3042C13.858 33.0199 13.4308 32.8381 13.1323 32.5189C10.6498 29.8687 9.35893 26.8967 9.27863 23.9232C9.19831 20.9494 10.3291 17.9846 12.6706 15.3503L28.6961 33.0199ZM28.6961 33.0199C29.1423 33.0199 29.5695 32.8381 29.868 32.5189L28.6961 33.0199ZM13.4929 16.0808L13.4929 16.0807C13.5823 15.98 13.7184 15.9199 13.869 15.9199H29.1312C29.2818 15.9199 29.418 15.98 29.5073 16.0807L29.5074 16.0808C31.6847 18.5306 32.7269 21.218 32.6515 23.9054C32.5761 26.5932 31.3824 29.2933 29.065 31.7671L29.0649 31.7671C28.9754 31.8629 28.8415 31.9199 28.6961 31.9199H14.3042C14.1588 31.9199 14.0248 31.8629 13.9353 31.7671L13.9353 31.7671C11.6179 29.2933 10.4242 26.5932 10.3488 23.9054C10.2734 21.218 11.3156 18.5306 13.4929 16.0808ZM13.869 14.8199C13.4076 14.8199 12.9706 15.0124 12.6706 15.3503L29.868 32.5189C32.3505 29.8687 33.6413 26.8967 33.7216 23.9232C33.8019 20.9494 32.6711 17.9846 30.3297 15.3503C30.0297 15.0124 29.5927 14.8199 29.1312 14.8199H13.869Z" fill="#0B2E4E" stroke="#0B2E4E" stroke-width="0.2"/>
<path d="M20.95 15.3698C20.95 15.674 21.1965 15.9198 21.5 15.9198C21.8036 15.9198 22.05 15.674 22.05 15.3698V11.7698C22.05 11.4657 21.8036 11.2198 21.5 11.2198C21.1965 11.2198 20.95 11.4657 20.95 11.7698V15.3698Z" fill="#0B2E4E" stroke="#0B2E4E" stroke-width="0.2"/>
<path d="M9.55334 26.1901L9.56972 26.27H9.6513H15.1719C15.7387 26.27 16.2002 25.809 16.2002 25.2421V19.8979C16.2002 19.3309 15.7387 18.87 15.1719 18.87H10.392H10.326L10.3001 18.9306L10.1831 19.2037L10.183 19.2038C9.26046 21.3626 9.02308 23.5923 9.47952 25.83L9.47954 25.8301L9.55334 26.1901ZM15.0999 19.97L15.0724 25.17H10.4775C10.1992 23.4188 10.3938 21.6737 11.0582 19.97H15.0999Z" fill="#0B2E4E" stroke="#0B2E4E" stroke-width="0.2"/>
<path d="M33.3493 26.27H33.431L33.4473 26.1899L33.5206 25.83C33.9771 23.5923 33.7402 21.3626 32.8171 19.2038L32.7006 18.9307L32.6747 18.87H32.6086H27.8283C27.2614 18.87 26.7999 19.3309 26.7999 19.8979V25.2421C26.7999 25.809 27.2614 26.27 27.8283 26.27H33.3493ZM32.5232 25.1673L27.9009 25.1426L27.9277 19.97H31.942C32.6063 21.673 32.8009 23.4167 32.5232 25.1673Z" fill="#0B2E4E" stroke="#0B2E4E" stroke-width="0.2"/>
<path d="M20.7001 10.4199C20.7001 9.97875 21.059 9.61987 21.5001 9.61987C21.9412 9.61987 22.3001 9.97875 22.3001 10.4199C22.3001 10.861 21.9412 11.2199 21.5001 11.2199C21.059 11.2199 20.7001 10.861 20.7001 10.4199ZM19.6001 10.4199C19.6001 11.4678 20.4521 12.3199 21.5001 12.3199C22.548 12.3199 23.4001 11.4678 23.4001 10.4199C23.4001 9.37194 22.548 8.51987 21.5001 8.51987C20.4521 8.51987 19.6001 9.37194 19.6001 10.4199Z" fill="#0B2E4E" stroke="#0B2E4E" stroke-width="0.2"/>
<path d="M35.0757 6.2082C34.9866 5.91813 34.6774 5.75388 34.3884 5.8442C34.3883 5.84423 34.3882 5.84425 34.3882 5.84427L22.6886 9.44413L22.6885 9.44416C22.3984 9.53371 22.2349 9.84149 22.3246 10.1317M35.0757 6.2082C35.1653 6.49836 35.0017 6.80611 34.7117 6.89566L34.7116 6.89569L23.0117 10.4956C23.0117 10.4956 23.0117 10.4956 23.0117 10.4956C22.9581 10.5122 22.9035 10.5199 22.8499 10.5199C22.6152 10.5199 22.3973 10.3683 22.3246 10.1317M35.0757 6.2082C35.0756 6.20815 35.0756 6.20811 35.0756 6.20806L34.9801 6.23761L35.0757 6.20828C35.0757 6.20825 35.0757 6.20822 35.0757 6.2082ZM22.3246 10.1317C22.3246 10.1317 22.3246 10.1317 22.3246 10.1318L22.4201 10.1022L22.3245 10.1316C22.3245 10.1316 22.3246 10.1316 22.3246 10.1317Z" fill="#0B2E4E" stroke="#0B2E4E" stroke-width="0.2"/>
<path d="M7.92454 14.6318C7.99725 14.8685 8.21514 15.0201 8.44986 15.0201C8.5035 15.0201 8.55804 15.0124 8.61169 14.9958C8.6117 14.9958 8.6117 14.9958 8.6117 14.9958L20.3116 11.3959L20.3117 11.3958C20.6018 11.3063 20.7653 10.9985 20.6756 10.7083C20.5862 10.4187 20.2773 10.2534 19.9883 10.3444C19.9882 10.3444 19.988 10.3445 19.9879 10.3445L8.2886 13.9443L8.28851 13.9443C7.99843 14.0339 7.83485 14.3416 7.92454 14.6318ZM7.92454 14.6318C7.92453 14.6318 7.92452 14.6318 7.92451 14.6317L8.02011 14.6024M7.92454 14.6318C7.92455 14.6319 7.92456 14.6319 7.92457 14.6319L8.02011 14.6024M8.02011 14.6024C8.07951 14.7959 8.25771 14.9201 8.44986 14.9201C8.49396 14.9201 8.53851 14.9138 8.58216 14.9003M8.02011 14.6024C7.94676 14.3652 8.08041 14.1132 8.31801 14.0399L8.58216 14.9003M8.58216 14.9003L20.2822 11.3003C20.5198 11.2269 20.6534 10.9749 20.5801 10.7378L8.58216 14.9003Z" fill="#0B2E4E" stroke="#0B2E4E" stroke-width="0.2"/>
<path d="M18.4498 20.207C18.4498 20.0766 18.5565 19.97 18.6873 19.97H24.3128C24.4434 19.97 24.5498 20.0764 24.5498 20.207V24.9329C24.5498 25.0635 24.4434 25.17 24.3128 25.17H18.6873C18.5565 25.17 18.4498 25.0634 18.4498 24.9329V20.207ZM18.6873 26.27H24.3128C25.0502 26.27 25.6498 25.6703 25.6498 24.9329V20.207C25.6498 19.4696 25.0502 18.87 24.3128 18.87H18.6873C17.9499 18.87 17.3498 19.4695 17.3498 20.207V24.9329C17.3498 25.6704 17.9499 26.27 18.6873 26.27Z" fill="#0B2E4E" stroke="#0B2E4E" stroke-width="0.2"/>
<path d="M19.7001 30.77H23.3001C23.6037 30.77 23.8501 30.5242 23.8501 30.22C23.8501 29.9159 23.6037 29.67 23.3001 29.67H19.7001C19.3966 29.67 19.1501 29.9159 19.1501 30.22C19.1501 30.5242 19.3966 30.77 19.7001 30.77Z" fill="#0B2E4E" stroke="#0B2E4E" stroke-width="0.2"/>
<path d="M18.8001 28.52H24.2001C24.5037 28.52 24.7501 28.2742 24.7501 27.97C24.7501 27.6659 24.5037 27.42 24.2001 27.42H18.8001C18.4965 27.42 18.2501 27.6659 18.2501 27.97C18.2501 28.2742 18.4965 28.52 18.8001 28.52Z" fill="#0B2E4E" stroke="#0B2E4E" stroke-width="0.2"/>
</g>
</g>
<defs>
<clipPath id="clip0_220_1750">
<rect width="27" height="27" fill="white" transform="translate(8 6)"/>
</clipPath>
</defs>
</svg>
