<svg width="44" height="43" viewBox="0 0 44 43" fill="none" xmlns="http://www.w3.org/2000/svg">
<g opacity="0.6">
<path d="M21.5 41.9256C32.6268 41.9256 41.65 32.9305 41.65 21.8307C41.65 10.7308 32.6268 1.73574 21.5 1.73574C10.3732 1.73574 1.35 10.7308 1.35 21.8307C1.35 32.9305 10.3732 41.9256 21.5 41.9256Z" stroke="#0B2E4E" stroke-width="1.3"/>
<path fill-rule="evenodd" clip-rule="evenodd" d="M28.5758 30.647C28.5758 29.6867 29.3544 28.9082 30.3146 28.9082C31.2748 28.9082 32.0533 29.6867 32.0533 30.647C32.0533 31.6072 31.2748 32.3857 30.3146 32.3857C29.3544 32.3857 28.5758 31.6072 28.5758 30.647Z" stroke="#0B2E4E" stroke-width="1.2"/>
<path fill-rule="evenodd" clip-rule="evenodd" d="M11.1884 30.647C11.1884 29.6867 11.9669 28.9082 12.9271 28.9082C13.8874 28.9082 14.6659 29.6867 14.6659 30.647C14.6659 31.6072 13.8874 32.3857 12.9271 32.3857C11.9669 32.3857 11.1884 31.6072 11.1884 30.647Z" stroke="#0B2E4E" stroke-width="1.2"/>
<path d="M19.1045 22.396L20.2081 25.8652" stroke="#0B2E4E" stroke-width="1.2" stroke-linecap="round" stroke-linejoin="round"/>
<path fill-rule="evenodd" clip-rule="evenodd" d="M11.6081 25.8243C11.6081 25.8243 12.5475 24.5051 13.3469 23.8682C14.3904 23.0367 15.303 22.3468 16.4259 22.3875C17.5488 22.4281 21.7604 22.3875 21.7604 22.3875C24.7758 22.3875 28.1262 25.8243 28.1262 25.8243H11.6081Z" stroke="#0B2E4E" stroke-width="1.2" stroke-linecap="round" stroke-linejoin="round"/>
<path fill-rule="evenodd" clip-rule="evenodd" d="M9.01508 26.9519C9.13549 26.2973 11.1885 25.6478 12.4926 25.6478C12.4775 24.3026 14.666 22.605 15.9701 22.3877H21.1863C25.0985 22.3877 28.1413 25.8652 28.1413 25.8652C28.1413 25.8652 34.2269 26.7346 34.2269 28.908C34.2269 31.0814 33.3576 31.0814 33.3576 31.0814H31.9918C32.0278 30.9415 32.0535 30.7976 32.0535 30.6467C32.0535 29.6865 31.275 28.908 30.3147 28.908C29.3545 28.908 28.576 29.6865 28.576 30.6467C28.576 30.7976 28.6012 30.9415 28.6373 31.0814H14.6043C14.6404 30.9415 14.666 30.7976 14.666 30.6467C14.666 29.6865 13.8875 28.908 12.9273 28.908C11.967 28.908 11.1885 29.6865 11.1885 30.6467C11.1885 30.7976 11.2137 30.9415 11.2498 31.0814H10.3191C9.60061 31.0814 9.01682 30.4985 9.01508 29.7804C9.01422 29.4192 8.98161 27.1332 9.01508 26.9519Z" stroke="#0B2E4E" stroke-width="1.2" stroke-linecap="round" stroke-linejoin="round"/>
<path d="M29.87 15.217L29.8703 15.2167C30.325 14.748 30.6321 14.156 30.7534 13.5142C30.8746 12.8724 30.8047 12.2092 30.5523 11.6068C30.2999 11.0044 29.8761 10.4894 29.3335 10.1258C28.791 9.76222 28.1536 9.56598 27.5005 9.56148L27.5005 9.56147H27.4991L27.4801 9.56147L27.4796 9.56148C27.0357 9.56268 26.5966 9.6525 26.1879 9.82567C25.7795 9.99871 25.4098 10.2515 25.1003 10.5693C24.7955 10.877 24.555 11.2423 24.3929 11.6439C24.2307 12.0455 24.1501 12.4753 24.1557 12.9083C24.1572 13.3456 24.2448 13.7782 24.4135 14.1816C24.5824 14.5853 24.8292 14.9517 25.1398 15.2599C25.4504 15.5681 25.8188 15.812 26.2238 15.9777C26.6288 16.1433 27.0625 16.2275 27.5 16.2254L27.5003 16.2254C27.9424 16.2226 28.3795 16.1321 28.7863 15.959C29.1931 15.7859 29.5614 15.5337 29.87 15.217ZM28.708 15.7749C29.0904 15.6122 29.4367 15.3751 29.7267 15.0775L27.4991 16.0254C27.9147 16.0228 28.3256 15.9377 28.708 15.7749ZM25.783 11.2485L25.783 11.2485L25.7845 11.247C26.0045 11.0207 26.2676 10.8408 26.5582 10.7177C26.8488 10.5946 27.161 10.5309 27.4765 10.5302L27.4991 10.5302L27.4994 10.5302C27.808 10.5298 28.1136 10.5902 28.3988 10.7082C28.6839 10.8261 28.943 10.9992 29.1611 11.2175C29.3792 11.4357 29.5521 11.6949 29.6698 11.9802C29.7876 12.2654 29.8478 12.5711 29.8471 12.8797L29.8471 12.8828C29.8512 13.1901 29.7941 13.4951 29.679 13.78C29.564 14.0649 29.3933 14.3241 29.177 14.5424L29.1757 14.5438C28.9576 14.7682 28.6969 14.9469 28.4088 15.0693C28.1208 15.1917 27.8112 15.2554 27.4983 15.2566L27.4976 15.2566C27.1862 15.2589 26.8775 15.1997 26.5891 15.0823C26.3007 14.9649 26.0383 14.7917 25.8171 14.5725C25.5959 14.3534 25.4201 14.0927 25.3 13.8055C25.1798 13.5182 25.1176 13.2101 25.1169 12.8987L25.1169 12.8987L25.1169 12.8963C25.1126 12.5911 25.1693 12.2882 25.2837 12.0052C25.398 11.7222 25.5678 11.465 25.783 11.2485Z" fill="#0B2E4E" stroke="#0B2E4E" stroke-width="0.4"/>
<path d="M27.4634 23.0827C27.6824 23.0833 27.8979 23.0287 28.0903 22.9239C28.2825 22.8192 28.4452 22.6678 28.5635 22.4836C28.5965 22.4335 28.6265 22.3816 28.6532 22.3349C28.6572 22.3278 28.6612 22.3208 28.6651 22.314C28.688 22.2738 28.7082 22.2383 28.7287 22.2054L28.7288 22.2055L28.7328 22.1984L29.6485 20.5851L29.6485 20.585C30.6065 18.8965 31.5664 17.2074 32.5282 15.5176L32.5283 15.5175C32.9518 14.772 33.1818 13.9322 33.197 13.0749C33.2222 12.3171 33.0881 11.5625 32.8032 10.8599L32.8032 10.8599L32.8025 10.8581C31.9064 8.70583 30.269 7.47413 27.9596 7.21188L27.9596 7.21186L27.9567 7.21157C27.2267 7.13936 26.4896 7.21895 25.7919 7.44531C24.7426 7.76119 23.8121 8.3844 23.1206 9.23447C22.3041 10.2182 21.8398 11.4465 21.8012 12.7243H21.8011L21.8011 12.7266C21.7885 13.3908 21.8838 14.0526 22.0833 14.6863L22.0832 14.6863L22.0852 14.6921C22.2677 15.2154 22.5027 15.7188 22.7867 16.1947L22.7962 16.2122L22.7962 16.2122L22.7976 16.2146C23.738 17.8819 24.6816 19.546 25.6283 21.2069C25.6284 21.207 25.6285 21.2071 25.6285 21.2072L25.7514 21.4246L25.7517 21.4252C25.765 21.4485 25.7783 21.4719 25.7917 21.4954C25.9797 21.8256 26.1764 22.1709 26.3885 22.5015L26.3889 22.5022C26.505 22.6816 26.6643 22.8287 26.8523 22.9302C27.04 23.0315 27.2501 23.0839 27.4634 23.0827ZM27.4634 23.0827C27.463 23.0827 27.4627 23.0827 27.4624 23.0827L27.463 22.8827L27.4643 23.0827C27.464 23.0827 27.4637 23.0827 27.4634 23.0827ZM23.8616 9.84707L23.8616 9.84707L23.8623 9.84623C24.4347 9.14499 25.2036 8.63088 26.0704 8.36993L26.0704 8.37L26.0754 8.36833C26.6453 8.18013 27.2485 8.11469 27.8454 8.17631C29.7896 8.39585 31.1472 9.41628 31.9023 11.2277C32.1391 11.8023 32.2528 12.4203 32.2359 13.0416L32.2359 13.0437C32.2243 13.7419 32.0377 14.4262 31.6932 15.0337C30.7314 16.7272 29.7697 18.4176 28.8079 20.1048L28.8076 20.1054L27.8937 21.7207L27.893 21.722C27.8465 21.8057 27.8016 21.8846 27.7539 21.9608C27.7225 22.0076 27.6801 22.046 27.6304 22.0727L27.7251 22.2489L27.6304 22.0727C27.5801 22.0998 27.5239 22.1139 27.4667 22.114V22.1139L27.4623 22.114C27.412 22.1151 27.3623 22.1033 27.3179 22.0796C27.2735 22.0559 27.2359 22.0212 27.2088 21.9788L27.2084 21.9782C27.0016 21.657 26.8066 21.3139 26.6139 20.9748L26.5984 20.9475L26.598 20.9468L26.4714 20.7219L26.4709 20.7211C25.5268 19.0629 24.5834 17.4017 23.6406 15.7372L23.6406 15.7372L23.6381 15.7329L23.6267 15.7139L23.6259 15.7126C23.3722 15.2971 23.1608 14.8573 22.9946 14.3997C22.8305 13.8636 22.7545 13.3043 22.7697 12.7438C22.8025 11.6838 23.1866 10.6649 23.8616 9.84707Z" fill="#0B2E4E" stroke="#0B2E4E" stroke-width="0.4"/>
</g>
</svg>
