<svg width="20" height="20" viewBox="0 0 20 20" fill="none" xmlns="http://www.w3.org/2000/svg">
<path d="M0 5C0 4.33696 0.263392 3.70107 0.732233 3.23223C1.20107 2.76339 1.83696 2.5 2.5 2.5H17.5C18.163 2.5 18.7989 2.76339 19.2678 3.23223C19.7366 3.70107 20 4.33696 20 5V15C20 15.663 19.7366 16.2989 19.2678 16.7678C18.7989 17.2366 18.163 17.5 17.5 17.5H2.5C1.83696 17.5 1.20107 17.2366 0.732233 16.7678C0.263392 16.2989 0 15.663 0 15V5ZM2.5 3.75C2.16848 3.75 1.85054 3.8817 1.61612 4.11612C1.3817 4.35054 1.25 4.66848 1.25 5V6.25H18.75V5C18.75 4.66848 18.6183 4.35054 18.3839 4.11612C18.1495 3.8817 17.8315 3.75 17.5 3.75H2.5ZM18.75 8.75H1.25V15C1.25 15.3315 1.3817 15.6495 1.61612 15.8839C1.85054 16.1183 2.16848 16.25 2.5 16.25H17.5C17.8315 16.25 18.1495 16.1183 18.3839 15.8839C18.6183 15.6495 18.75 15.3315 18.75 15V8.75Z" fill="#0B2E4E"/>
<path d="M2.5 12.5C2.5 12.1685 2.6317 11.8505 2.86612 11.6161C3.10054 11.3817 3.41848 11.25 3.75 11.25H5C5.33152 11.25 5.64946 11.3817 5.88388 11.6161C6.1183 11.8505 6.25 12.1685 6.25 12.5V13.75C6.25 14.0815 6.1183 14.3995 5.88388 14.6339C5.64946 14.8683 5.33152 15 5 15H3.75C3.41848 15 3.10054 14.8683 2.86612 14.6339C2.6317 14.3995 2.5 14.0815 2.5 13.75V12.5Z" fill="#0B2E4E"/>
</svg>
