<svg width="44" height="43" viewBox="0 0 44 43" fill="none" xmlns="http://www.w3.org/2000/svg">
<g opacity="0.6">
<path d="M21.5 41.9256C32.6268 41.9256 41.65 32.9305 41.65 21.8307C41.65 10.7308 32.6268 1.73574 21.5 1.73574C10.3732 1.73574 1.35 10.7308 1.35 21.8307C1.35 32.9305 10.3732 41.9256 21.5 41.9256Z" stroke="#0B2E4E" stroke-width="1.3"/>
<path fill-rule="evenodd" clip-rule="evenodd" d="M28.5758 30.647C28.5758 29.6867 29.3544 28.9082 30.3146 28.9082C31.2748 28.9082 32.0533 29.6867 32.0533 30.647C32.0533 31.6072 31.2748 32.3857 30.3146 32.3857C29.3544 32.3857 28.5758 31.6072 28.5758 30.647Z" stroke="#0B2E4E" stroke-width="1.2"/>
<path fill-rule="evenodd" clip-rule="evenodd" d="M11.1884 30.647C11.1884 29.6867 11.9669 28.9082 12.9271 28.9082C13.8874 28.9082 14.6659 29.6867 14.6659 30.647C14.6659 31.6072 13.8874 32.3857 12.9271 32.3857C11.9669 32.3857 11.1884 31.6072 11.1884 30.647Z" stroke="#0B2E4E" stroke-width="1.2"/>
<path d="M19.1045 22.396L20.2081 25.8652" stroke="#0B2E4E" stroke-width="1.2" stroke-linecap="round" stroke-linejoin="round"/>
<path fill-rule="evenodd" clip-rule="evenodd" d="M11.6081 25.8243C11.6081 25.8243 12.5475 24.5051 13.3469 23.8682C14.3904 23.0367 15.303 22.3468 16.4259 22.3875C17.5488 22.4281 21.7604 22.3875 21.7604 22.3875C24.7758 22.3875 28.1262 25.8243 28.1262 25.8243H11.6081Z" stroke="#0B2E4E" stroke-width="1.2" stroke-linecap="round" stroke-linejoin="round"/>
<path fill-rule="evenodd" clip-rule="evenodd" d="M9.01508 26.9519C9.13549 26.2973 11.1885 25.6478 12.4926 25.6478C12.4775 24.3026 14.666 22.605 15.9701 22.3877H21.1863C25.0985 22.3877 28.1413 25.8652 28.1413 25.8652C28.1413 25.8652 34.2269 26.7346 34.2269 28.908C34.2269 31.0814 33.3576 31.0814 33.3576 31.0814H31.9918C32.0278 30.9415 32.0535 30.7976 32.0535 30.6467C32.0535 29.6865 31.275 28.908 30.3147 28.908C29.3545 28.908 28.576 29.6865 28.576 30.6467C28.576 30.7976 28.6012 30.9415 28.6373 31.0814H14.6043C14.6404 30.9415 14.666 30.7976 14.666 30.6467C14.666 29.6865 13.8875 28.908 12.9273 28.908C11.967 28.908 11.1885 29.6865 11.1885 30.6467C11.1885 30.7976 11.2137 30.9415 11.2498 31.0814H10.3191C9.60061 31.0814 9.01682 30.4985 9.01508 29.7804C9.01422 29.4192 8.98161 27.1332 9.01508 26.9519Z" stroke="#0B2E4E" stroke-width="1.2" stroke-linecap="round" stroke-linejoin="round"/>
<path d="M26.5615 15.0577L26.5615 15.0578C26.5616 15.1436 26.5843 15.2278 26.6273 15.3019C26.6704 15.3761 26.7323 15.4376 26.8067 15.4801C26.8067 15.4801 26.8068 15.4801 26.8068 15.4801L29.1625 16.8263L29.1625 16.8263L29.1656 16.828C29.2774 16.8884 29.4083 16.9027 29.5305 16.8678C29.6527 16.8329 29.7563 16.7516 29.8194 16.6413C29.8824 16.531 29.8998 16.4005 29.8678 16.2775C29.8358 16.1545 29.757 16.049 29.6483 15.9833L29.6483 15.9833L29.6452 15.9816L27.5346 14.7755V11.3558C27.5346 11.2268 27.4834 11.103 27.3921 11.0118C27.3009 10.9205 27.1771 10.8693 27.0481 10.8693C26.919 10.8693 26.7953 10.9205 26.7041 11.0118C26.6128 11.103 26.5615 11.2268 26.5615 11.3558L26.5615 15.0577Z" fill="#0B2E4E" stroke="#0B2E4E" stroke-width="0.3"/>
<path d="M27.3846 19.9192C28.8525 19.9192 30.2602 19.3361 31.2982 18.2982C32.3361 17.2602 32.9192 15.8525 32.9192 14.3846C32.9192 12.9167 32.3361 11.509 31.2982 10.4711C30.2602 9.43311 28.8525 8.85 27.3846 8.85C25.9167 8.85 24.509 9.43311 23.4711 10.4711C22.4331 11.509 21.85 12.9167 21.85 14.3846C21.85 15.8525 22.4331 17.2602 23.4711 18.2982C24.509 19.3361 25.9167 19.9192 27.3846 19.9192ZM31.9462 14.3846C31.9462 15.5944 31.4656 16.7547 30.6101 17.6101C29.7547 18.4656 28.5944 18.9462 27.3846 18.9462C26.1748 18.9462 25.0146 18.4656 24.1591 17.6101C23.3037 16.7547 22.8231 15.5944 22.8231 14.3846C22.8231 13.1748 23.3037 12.0146 24.1591 11.1591C25.0146 10.3037 26.1748 9.82308 27.3846 9.82308C28.5944 9.82308 29.7547 10.3037 30.6101 11.1591C31.4656 12.0146 31.9462 13.1748 31.9462 14.3846Z" fill="#0B2E4E" stroke="#0B2E4E" stroke-width="0.3"/>
</g>
</svg>
