<svg width="21" height="21" viewBox="0 0 21 21" fill="none" xmlns="http://www.w3.org/2000/svg">
<path d="M9.63737 10.0001L5.13603 14.4998L5.13602 14.4998C5.04643 14.5894 4.97537 14.6957 4.92689 14.8128C4.87841 14.9298 4.85346 15.0553 4.85346 15.1819C4.85346 15.3086 4.87841 15.4341 4.92689 15.5511C4.97537 15.6682 5.04643 15.7745 5.13602 15.8641C5.2256 15.9537 5.33195 16.0248 5.449 16.0732C5.56604 16.1217 5.69149 16.1467 5.81818 16.1467C5.94487 16.1467 6.07032 16.1217 6.18737 16.0732C6.30441 16.0248 6.41076 15.9537 6.50035 15.8641L6.50036 15.8641L11 11.3628L15.4996 15.8641L15.4997 15.8641C15.5892 15.9537 15.6956 16.0248 15.8126 16.0732C15.9297 16.1217 16.0551 16.1467 16.1818 16.1467C16.3085 16.1467 16.434 16.1217 16.551 16.0732C16.668 16.0248 16.7744 15.9537 16.864 15.8641C16.9536 15.7745 17.0246 15.6682 17.0731 15.5511C17.1216 15.4341 17.1465 15.3086 17.1465 15.1819C17.1465 15.0553 17.1216 14.9298 17.0731 14.8128C17.0246 14.6957 16.9536 14.5894 16.864 14.4998L16.864 14.4998L12.3626 10.0001L16.864 5.50048L16.864 5.50047C16.9536 5.41089 17.0246 5.30454 17.0731 5.18749C17.1216 5.07044 17.1465 4.94499 17.1465 4.8183C17.1465 4.69162 17.1216 4.56617 17.0731 4.44912C17.0246 4.33207 16.9536 4.22572 16.864 4.13614C16.7744 4.04656 16.668 3.97549 16.551 3.92701C16.434 3.87853 16.3085 3.85358 16.1818 3.85358C16.0551 3.85358 15.9297 3.87853 15.8126 3.92701C15.6956 3.97549 15.5892 4.04656 15.4997 4.13614L15.4996 4.13615L11 8.63749L6.50044 4.13623C6.50042 4.13621 6.50041 4.1362 6.50039 4.13619C6.41089 4.04647 6.30457 3.97528 6.18751 3.92671C6.07044 3.87813 5.94493 3.85312 5.81818 3.85312C5.69143 3.85312 5.56593 3.87813 5.44885 3.92671C5.33182 3.97527 5.22551 4.04644 5.13602 4.13614C5.04632 4.22563 4.97515 4.33194 4.92659 4.44897C4.87801 4.56605 4.853 4.69155 4.853 4.8183C4.853 4.94506 4.87801 5.07056 4.92659 5.18764C4.97517 5.30471 5.04637 5.41105 5.13611 5.50056M9.63737 10.0001L5.13603 5.50048L5.13611 5.50056M9.63737 10.0001L5.13611 5.50056M9.63737 10.0001L5.13611 5.50056" fill="#0B2E4E" stroke="#0B2E4E" stroke-width="0.2"/>
</svg>
