<svg width="43" height="43" viewBox="0 0 43 43" fill="none" xmlns="http://www.w3.org/2000/svg">
<g opacity="0.6">
<path d="M14.4196 10.8227L14.4195 10.8228C14.0256 11.9261 13.7034 13.4912 13.468 15.4695L13.468 15.4695C13.0441 19.0336 12.95 23.2245 12.95 26.1117C12.95 26.4844 13.2547 26.7892 13.6274 26.7892H14.7146V35.3674C14.7146 35.7402 15.0193 36.0449 15.392 36.0449H16.6626C17.0353 36.0449 17.34 35.7402 17.34 35.3674V9.19245C17.34 8.81146 17.0349 8.51494 16.6626 8.51494C15.9489 8.51494 15.4378 8.95763 15.0826 9.46172C14.7305 9.96131 14.5252 10.53 14.4224 10.8148L14.4196 10.8227ZM15.9852 10.5815V25.7774C15.8695 25.5685 15.6466 25.4263 15.392 25.4263H14.3052C14.3217 22.9746 14.4096 18.9694 14.8143 15.6226C15.1609 12.755 15.6135 11.3113 15.9852 10.5815Z" fill="#0B2E4E" stroke="#0B2E4E" stroke-width="0.1"/>
<path d="M29.9029 7.95C29.5303 7.95 29.2258 8.25485 29.2258 8.62763V16.5122C29.2258 17.0463 29.1078 17.4821 28.9613 17.7828C28.888 17.9333 28.8083 18.0487 28.7338 18.1256C28.6572 18.2049 28.5942 18.2352 28.5546 18.2352H28.1391H28.0872V8.73746C28.0872 8.36469 27.7826 8.05983 27.41 8.05983C27.0375 8.05983 26.7329 8.36469 26.7329 8.73746V18.2352H26.681H26.2655C26.2236 18.2352 26.1596 18.2045 26.0828 18.1256C26.0081 18.0487 25.9287 17.9334 25.8559 17.7829C25.7104 17.4822 25.5943 17.0465 25.5943 16.5122V8.62763C25.5943 8.25485 25.2898 7.95 24.9172 7.95C24.5446 7.95 24.24 8.25485 24.24 8.62763V16.5122C24.24 17.3121 24.4319 18.0351 24.7526 18.5793C25.0643 19.1083 25.5007 19.4725 26.0039 19.5669V35.3723C26.0039 35.7451 26.3084 36.0499 26.681 36.0499H28.1391C28.5117 36.0499 28.8162 35.7451 28.8162 35.3723V19.5669C29.3194 19.4725 29.7557 19.1083 30.0675 18.5793C30.3882 18.0351 30.58 17.3121 30.58 16.5122V8.62763C30.58 8.25526 30.2837 7.95 29.9029 7.95ZM27.4619 34.6868H27.366V19.5905H27.4619V34.6868Z" fill="#0B2E4E" stroke="#0B2E4E" stroke-width="0.1"/>
<path d="M21.5 41.595C32.6268 41.595 41.65 32.5999 41.65 21.5001C41.65 10.4002 32.6268 1.40518 21.5 1.40518C10.3732 1.40518 1.35 10.4002 1.35 21.5001C1.35 32.5999 10.3732 41.595 21.5 41.595Z" stroke="#0B2E4E" stroke-width="1.3"/>
</g>
</svg>
