<svg width="33" height="33" viewBox="0 0 33 33" fill="none" xmlns="http://www.w3.org/2000/svg">
<g opacity="0.6">
<path d="M16.5 0C7.40126 0 0 7.40126 0 16.5C0 25.5987 7.40126 33 16.5 33C25.5987 33 33 25.5987 33 16.5C33 7.40126 25.5987 0 16.5 0ZM16.5 2.35714C24.3248 2.35714 30.6429 8.67516 30.6429 16.5C30.6429 24.3248 24.3248 30.6429 16.5 30.6429C8.67516 30.6429 2.35714 24.3248 2.35714 16.5C2.35714 8.67516 8.67516 2.35714 16.5 2.35714Z" fill="#0B2E4E"/>
<path d="M18.8571 16.5C18.8571 17.1251 18.6088 17.7247 18.1667 18.1667C17.7247 18.6088 17.1251 18.8571 16.5 18.8571C15.8748 18.8571 15.2753 18.6088 14.8332 18.1667C14.3912 17.7247 14.1428 17.1251 14.1428 16.5C14.1428 15.8748 14.3912 15.2753 14.8332 14.8332C15.2753 14.3912 15.8748 14.1428 16.5 14.1428C17.1251 14.1428 17.7247 14.3912 18.1667 14.8332C18.6088 15.2753 18.8571 15.8748 18.8571 16.5Z" fill="#0B2E4E"/>
<path d="M10.6071 16.5C10.6071 17.1251 10.3588 17.7247 9.91671 18.1667C9.47466 18.6088 8.87512 18.8571 8.24996 18.8571C7.62481 18.8571 7.02526 18.6088 6.58321 18.1667C6.14116 17.7247 5.89282 17.1251 5.89282 16.5C5.89282 15.8748 6.14116 15.2753 6.58321 14.8332C7.02526 14.3912 7.62481 14.1428 8.24996 14.1428C8.87512 14.1428 9.47466 14.3912 9.91671 14.8332C10.3588 15.2753 10.6071 15.8748 10.6071 16.5Z" fill="#0B2E4E"/>
<path d="M27.1071 16.5C27.1071 17.1251 26.8588 17.7247 26.4167 18.1667C25.9747 18.6088 25.3751 18.8571 24.75 18.8571C24.1248 18.8571 23.5253 18.6088 23.0832 18.1667C22.6412 17.7247 22.3928 17.1251 22.3928 16.5C22.3928 15.8748 22.6412 15.2753 23.0832 14.8332C23.5253 14.3912 24.1248 14.1428 24.75 14.1428C25.3751 14.1428 25.9747 14.3912 26.4167 14.8332C26.8588 15.2753 27.1071 15.8748 27.1071 16.5Z" fill="#0B2E4E"/>
</g>
</svg>
