<svg width="43" height="43" viewBox="0 0 43 43" fill="none" xmlns="http://www.w3.org/2000/svg">
<g opacity="0.6">
<path d="M21.5 41.7049C32.6268 41.7049 41.65 32.7098 41.65 21.61C41.65 10.5101 32.6268 1.51504 21.5 1.51504C10.3732 1.51504 1.35 10.5101 1.35 21.61C1.35 32.7098 10.3732 41.7049 21.5 41.7049Z" stroke="#0B2E4E" stroke-width="1.3"/>
<path d="M31.5206 28.8155L31.5206 28.8155C31.243 27.1543 30.0759 25.7911 28.4753 25.2584L28.4437 25.3533L28.4753 25.2584L25.0673 24.1248V23.6812V23.5812H24.9673H24.1593H24.0593V23.6812V24.4265L23.5073 26.6303L22.0015 24.8267L21.9715 24.7908H21.9247H20.7378H20.691L20.661 24.8267L19.1553 26.6303L18.6032 24.4265V23.6812V23.5812H18.5032H17.6952H17.5952V23.6812V24.1248L14.1876 25.2584L14.1876 25.2584C12.5871 25.7911 11.4199 27.1543 11.1423 28.8155L11.1423 28.8155L10.2515 34.1485L10.232 34.265H10.3501H32.312H32.4301L32.4106 34.1486L31.5206 28.8155ZM30.5263 28.9811L31.2401 33.2586H28.6554L28.2968 29.6792L28.2868 29.5798L28.1873 29.5897L27.3834 29.67L27.2838 29.6799L27.2938 29.7794L27.6423 33.2582H23.4513V30.1324V30.0324H23.3513H22.1469L22.9939 28.3413L23.0387 28.2517L22.9491 28.207L22.2264 27.8461L22.137 27.8015L22.0923 27.8908L21.3312 29.411L20.5702 27.8916L20.5255 27.8023L20.4362 27.8469L19.7134 28.2078L19.6238 28.2525L19.6687 28.3421L20.5156 30.0328H19.3113H19.2113V30.1328V33.2586H15.0202L15.3687 29.7798L15.3787 29.6803L15.2791 29.6704L14.4752 29.5901L14.3757 29.5802L14.3658 29.6796L14.0071 33.259H11.4224L12.1362 28.9815C12.1362 28.9815 12.1362 28.9815 12.1362 28.9815C12.3523 27.6891 13.2601 26.6285 14.5061 26.2135C14.5061 26.2135 14.5061 26.2135 14.5061 26.2135L17.7424 25.1371L18.6115 28.6063L18.6593 28.797L18.7852 28.646L21.1635 25.7973H21.499L23.8773 28.6456L24.0033 28.7965L24.051 28.6059L24.9201 25.1367L28.1564 26.2131C28.1564 26.2131 28.1564 26.2131 28.1564 26.2131C29.4024 26.6281 30.3102 27.6887 30.5263 28.9811C30.5263 28.9811 30.5263 28.9811 30.5263 28.9811ZM22.4433 31.0392V33.2586H20.2193V31.0392H22.4433Z" fill="#0B2E4E" stroke="#0B2E4E" stroke-width="0.2"/>
<path d="M16.9872 16.9263H25.6752V18.7848C25.6752 19.7279 25.3073 20.6134 24.6396 21.2806C24.6396 21.2806 24.6396 21.2806 24.6396 21.2806L16.9872 16.9263ZM24.988 13.5351C24.7772 11.9253 24.1673 10.8894 23.5052 10.2241C24.8807 10.4529 25.6075 10.9302 26.0008 11.5871C26.4166 12.2816 26.4746 13.1973 26.4819 14.307H16.1805C16.1878 13.1973 16.2458 12.2816 16.6617 11.5871C17.055 10.9302 17.782 10.4529 19.1577 10.2241C18.4956 10.8894 17.8857 11.9253 17.6748 13.5351L17.6619 13.6343L17.761 13.6473L18.5617 13.7521L18.6609 13.7651L18.6739 13.6659C18.8734 12.1435 19.4626 11.2643 20.0369 10.7573C20.593 10.2665 21.1424 10.118 21.3302 10.0795C21.5075 10.1166 22.0564 10.2649 22.6148 10.7548C23.193 11.2621 23.7893 12.1422 23.989 13.6659L24.002 13.7651L24.1011 13.7521L24.9018 13.6473L25.001 13.6343L24.988 13.5351ZM14.3632 18.036C14.3632 19.1004 15.1565 19.9725 16.1806 20.1204C16.3953 20.8198 16.7777 21.4607 17.3103 21.9923L18.8855 23.5644C19.2856 23.9638 19.8184 24.1844 20.3847 24.1844H22.2778C22.844 24.1844 23.3769 23.9638 23.777 23.5644L25.3522 21.9923C25.8848 21.4607 26.2668 20.8197 26.4818 20.1204C27.5059 19.9725 28.2992 19.1004 28.2992 18.036C28.2992 17.5792 28.1477 17.1614 27.9007 16.8175C28.3702 16.6191 28.7032 16.1588 28.7032 15.6167C28.7032 14.9274 28.1673 14.3611 27.4899 14.3106C27.4806 12.974 27.3978 11.6668 26.6004 10.692C25.7805 9.68965 24.2299 9.06504 21.3312 9.06504C18.4326 9.06504 16.8819 9.68965 16.062 10.692C15.2647 11.6668 15.1818 12.974 15.1726 14.3106C14.4952 14.3611 13.9592 14.9274 13.9592 15.6167C13.9592 16.1588 14.2923 16.6191 14.7618 16.8175C14.5148 17.1614 14.3632 17.5792 14.3632 18.036ZM15.3712 18.036C15.3712 17.6067 15.6188 17.2359 15.9792 17.0522V18.7848C15.9792 18.8648 15.982 18.9441 15.9866 19.0226C15.6223 18.8406 15.3712 18.468 15.3712 18.036ZM27.2912 18.036C27.2912 18.468 27.0402 18.8406 26.6759 19.0226C26.6805 18.9442 26.6832 18.865 26.6832 18.7848V17.0522C27.0436 17.2359 27.2912 17.6067 27.2912 18.036ZM15.2712 15.3134H27.3912C27.5592 15.3134 27.6952 15.4495 27.6952 15.6167C27.6952 15.7838 27.5592 15.9199 27.3912 15.9199H15.2712C15.1032 15.9199 14.9672 15.7838 14.9672 15.6167C14.9672 15.4495 15.1032 15.3134 15.2712 15.3134Z" fill="#0B2E4E" stroke="#0B2E4E" stroke-width="0.2"/>
</g>
</svg>
