<svg width="21" height="21" viewBox="0 0 21 21" fill="none" xmlns="http://www.w3.org/2000/svg">
<path d="M14.7438 7.79L10.45 8.32813L10.2963 9.04063L11.14 9.19625C11.6913 9.3275 11.8 9.52625 11.68 10.0756L10.2963 16.5781C9.93253 18.26 10.4932 19.0513 11.8113 19.0513C12.8332 19.0513 14.02 18.5788 14.5582 17.93L14.7232 17.15C14.3482 17.48 13.8007 17.6113 13.4369 17.6113C12.9213 17.6113 12.7338 17.2494 12.8669 16.6119L14.7438 7.79ZM14.875 3.875C14.875 4.37228 14.6775 4.84919 14.3259 5.20082C13.9742 5.55246 13.4973 5.75 13 5.75C12.5028 5.75 12.0258 5.55246 11.6742 5.20082C11.3226 4.84919 11.125 4.37228 11.125 3.875C11.125 3.37772 11.3226 2.90081 11.6742 2.54917C12.0258 2.19754 12.5028 2 13 2C13.4973 2 13.9742 2.19754 14.3259 2.54917C14.6775 2.90081 14.875 3.37772 14.875 3.875Z" fill="#0B2E4E" fill-opacity="0.6"/>
</svg>
