<svg width="21" height="21" viewBox="0 0 21 21" fill="none" xmlns="http://www.w3.org/2000/svg">
<path d="M17.934 4.92362C18.3187 5.05883 18.652 5.31018 18.8877 5.64294C19.1235 5.9757 19.25 6.37345 19.25 6.78125V15.5312C19.25 16.5175 18.8582 17.4634 18.1608 18.1608C17.4634 18.8582 16.5175 19.25 15.5312 19.25H6.78125C6.37345 19.25 5.9757 19.1235 5.64294 18.8877C5.31018 18.652 5.05883 18.3187 4.92362 17.934L6.7585 17.9375H15.5312C16.1694 17.9375 16.7815 17.684 17.2327 17.2327C17.684 16.7815 17.9375 16.1694 17.9375 15.5312V6.78125L17.934 6.73662V4.92362ZM15.0903 1.75C15.6124 1.75 16.1132 1.95742 16.4824 2.32663C16.8516 2.69585 17.059 3.19661 17.059 3.71875V15.0911C17.059 15.6133 16.8516 16.114 16.4824 16.4832C16.1132 16.8525 15.6124 17.0599 15.0903 17.0599H3.71875C3.19661 17.0599 2.69585 16.8525 2.32663 16.4832C1.95742 16.114 1.75 15.6133 1.75 15.0911V3.71875C1.75 3.19661 1.95742 2.69585 2.32663 2.32663C2.69585 1.95742 3.19661 1.75 3.71875 1.75H15.0911H15.0903ZM15.0903 3.0625H3.71875C3.5447 3.0625 3.37778 3.13164 3.25471 3.25471C3.13164 3.37778 3.0625 3.5447 3.0625 3.71875V15.0911C3.0625 15.4534 3.3565 15.7474 3.71875 15.7474H15.0911C15.2652 15.7474 15.4321 15.6782 15.5552 15.5552C15.6782 15.4321 15.7474 15.2652 15.7474 15.0911V3.71875C15.7474 3.5447 15.6782 3.37778 15.5552 3.25471C15.4321 3.13164 15.2652 3.0625 15.0911 3.0625H15.0903ZM9.40625 5.90625C9.5803 5.90625 9.74722 5.97539 9.87029 6.09846C9.99336 6.22153 10.0625 6.38845 10.0625 6.5625V8.75H12.25C12.424 8.75 12.591 8.81914 12.714 8.94221C12.8371 9.06528 12.9062 9.2322 12.9062 9.40625C12.9062 9.5803 12.8371 9.74722 12.714 9.87029C12.591 9.99336 12.424 10.0625 12.25 10.0625H10.0625V12.25C10.0625 12.424 9.99336 12.591 9.87029 12.714C9.74722 12.8371 9.5803 12.9062 9.40625 12.9062C9.2322 12.9062 9.06528 12.8371 8.94221 12.714C8.81914 12.591 8.75 12.424 8.75 12.25V10.0625H6.5625C6.38845 10.0625 6.22153 9.99336 6.09846 9.87029C5.97539 9.74722 5.90625 9.5803 5.90625 9.40625C5.90625 9.2322 5.97539 9.06528 6.09846 8.94221C6.22153 8.81914 6.38845 8.75 6.5625 8.75H8.75V6.5625C8.75 6.38845 8.81914 6.22153 8.94221 6.09846C9.06528 5.97539 9.2322 5.90625 9.40625 5.90625Z" fill="#0B2E4E"/>
</svg>
