<svg width="20" height="20" viewBox="0 0 20 20" fill="none" xmlns="http://www.w3.org/2000/svg">
<g opacity="0.63">
<path d="M9.9999 20C9.83414 20 9.67517 19.9342 9.55796 19.8169C9.44075 19.6997 9.3749 19.5408 9.3749 19.375V17.7587L8.5674 18.5675C8.45005 18.6847 8.29094 18.7505 8.12509 18.7503C7.95924 18.7502 7.80022 18.6842 7.68303 18.5669C7.56584 18.4495 7.50006 18.2904 7.50018 18.1246C7.5003 17.9587 7.5663 17.7997 7.68365 17.6825L9.3749 15.9913V11.0825L5.1249 13.5363L4.5049 15.8488C4.46181 16.0089 4.35686 16.1453 4.21317 16.2281C4.06947 16.3108 3.89878 16.3331 3.73865 16.29C3.57853 16.2469 3.44208 16.142 3.35933 15.9983C3.27658 15.8546 3.25431 15.6839 3.2974 15.5237L3.59365 14.4212L2.19365 15.2287C2.05018 15.3103 1.88027 15.3318 1.72099 15.2886C1.56171 15.2453 1.42601 15.1409 1.34348 14.9979C1.26096 14.855 1.23832 14.6852 1.28051 14.5257C1.32269 14.3661 1.42627 14.2297 1.56865 14.1463L2.96865 13.3387L1.86365 13.0425C1.78437 13.0212 1.71006 12.9844 1.64498 12.9344C1.57989 12.8843 1.52531 12.8219 1.48433 12.7508C1.44336 12.6796 1.4168 12.6011 1.40618 12.5197C1.39555 12.4382 1.40106 12.3555 1.4224 12.2762C1.44374 12.197 1.48049 12.1227 1.53055 12.0576C1.5806 11.9925 1.64299 11.9379 1.71414 11.8969C1.7853 11.856 1.86382 11.8294 1.94524 11.8188C2.02666 11.8081 2.10937 11.8137 2.18865 11.835L4.49865 12.4538L8.7499 10L4.4999 7.54625L2.1874 8.165C2.02832 8.20465 1.86003 8.1802 1.7188 8.09693C1.57758 8.01365 1.47473 7.87822 1.43242 7.71982C1.39012 7.56143 1.41175 7.39275 1.49265 7.25015C1.57355 7.10755 1.70724 7.00245 1.8649 6.9575L2.96865 6.66125L1.56865 5.85375C1.497 5.81301 1.43411 5.7585 1.38361 5.69336C1.33311 5.62822 1.29599 5.55373 1.2744 5.47418C1.2528 5.39464 1.24715 5.31161 1.25778 5.22987C1.2684 5.14813 1.29509 5.0693 1.3363 4.99792C1.37752 4.92654 1.43244 4.86401 1.49792 4.81395C1.56339 4.76388 1.63813 4.72726 1.71781 4.70619C1.7975 4.68512 1.88057 4.68002 1.96223 4.69119C2.0439 4.70235 2.12255 4.72956 2.19365 4.77125L3.59365 5.57875L3.2974 4.475C3.27466 4.39522 3.26803 4.31172 3.27789 4.22935C3.28775 4.14698 3.31391 4.0674 3.35484 3.99524C3.39578 3.92309 3.45067 3.85981 3.51631 3.80909C3.58195 3.75836 3.65704 3.72122 3.73718 3.69981C3.81733 3.67841 3.90094 3.67317 3.98313 3.68441C4.06532 3.69565 4.14445 3.72313 4.21591 3.76527C4.28737 3.80741 4.34972 3.86335 4.39934 3.92983C4.44896 3.99631 4.48484 4.07201 4.5049 4.1525L5.12365 6.46375L9.3749 8.9175V4.00875L7.68365 2.3175C7.62554 2.25947 7.57943 2.19057 7.54795 2.11472C7.51647 2.03887 7.50024 1.95756 7.50018 1.87544C7.50012 1.79332 7.51624 1.71199 7.54761 1.6361C7.57899 1.56021 7.625 1.49123 7.68303 1.43313C7.74106 1.37502 7.80996 1.3289 7.88581 1.29742C7.96166 1.26594 8.04297 1.24971 8.12509 1.24965C8.20721 1.24959 8.28854 1.26571 8.36443 1.29709C8.44032 1.32846 8.50929 1.37447 8.5674 1.4325L9.3749 2.24125V0.625C9.3749 0.45924 9.44075 0.300269 9.55796 0.183058C9.67517 0.065848 9.83414 0 9.9999 0C10.1657 0 10.3246 0.065848 10.4418 0.183058C10.5591 0.300269 10.6249 0.45924 10.6249 0.625V2.24125L11.4337 1.4325C11.551 1.31531 11.7101 1.24954 11.876 1.24965C12.0418 1.24977 12.2008 1.31577 12.318 1.43313C12.4352 1.55048 12.501 1.70959 12.5009 1.87544C12.5008 2.04129 12.4348 2.20031 12.3174 2.3175L10.6249 4.00875V8.9175L14.8749 6.46375L15.4949 4.15125C15.538 3.99113 15.6429 3.85468 15.7866 3.77193C15.9303 3.68918 16.101 3.6669 16.2612 3.71C16.4213 3.7531 16.5577 3.85804 16.6405 4.00174C16.7232 4.14544 16.7455 4.31613 16.7024 4.47625L16.4074 5.57875L17.8074 4.77125C17.9509 4.68968 18.1208 4.66816 18.2801 4.71141C18.4393 4.75465 18.5751 4.85914 18.6576 5.00207C18.7401 5.145 18.7627 5.31476 18.7206 5.47432C18.6784 5.63388 18.5748 5.77028 18.4324 5.85375L17.0324 6.66125L18.1362 6.9575C18.2963 7.0006 18.4327 7.10554 18.5155 7.24924C18.5982 7.39294 18.6205 7.56363 18.5774 7.72375C18.5343 7.88387 18.4294 8.02032 18.2857 8.10307C18.142 8.18582 17.9713 8.2081 17.8112 8.165L15.5012 7.54625L11.2499 10L15.4999 12.4538L17.8112 11.835C17.9713 11.7921 18.1419 11.8145 18.2855 11.8974C18.4291 11.9802 18.5338 12.1168 18.5768 12.2769C18.6197 12.437 18.5973 12.6076 18.5144 12.7512C18.4315 12.8948 18.295 12.9996 18.1349 13.0425L17.0312 13.3387L18.4312 14.1463C18.5735 14.2297 18.6771 14.3661 18.7193 14.5257C18.7615 14.6852 18.7388 14.855 18.6563 14.9979C18.5738 15.1409 18.4381 15.2453 18.2788 15.2886C18.1195 15.3318 17.9496 15.3103 17.8062 15.2287L16.4062 14.4212L16.7012 15.525C16.7239 15.6048 16.7305 15.6883 16.7207 15.7707C16.7108 15.853 16.6846 15.9326 16.6437 16.0048C16.6028 16.0769 16.5479 16.1402 16.4823 16.1909C16.4166 16.2416 16.3415 16.2788 16.2614 16.3002C16.1812 16.3216 16.0976 16.3268 16.0154 16.3156C15.9332 16.3044 15.8541 16.2769 15.7826 16.2347C15.7112 16.1926 15.6488 16.1367 15.5992 16.0702C15.5496 16.0037 15.5137 15.928 15.4937 15.8475L14.8749 13.5363L10.6249 11.0825V15.9913L12.3162 17.6825C12.4335 17.7997 12.4995 17.9587 12.4996 18.1246C12.4997 18.2904 12.434 18.4495 12.3168 18.5669C12.1996 18.6842 12.0406 18.7502 11.8747 18.7503C11.7089 18.7505 11.5498 18.6847 11.4324 18.5675L10.6237 17.7587V19.375C10.6237 19.5408 10.5578 19.6997 10.4406 19.8169C10.3234 19.9342 10.1644 20 9.99865 20H9.9999Z" fill="#0B2E4E"/>
</g>
</svg>
