<svg width="21" height="21" viewBox="0 0 21 21" fill="none" xmlns="http://www.w3.org/2000/svg">
<g clip-path="url(#clip0_1031_3793)">
<path d="M10.5002 15.625C9.11883 15.625 7.79407 15.0763 6.81732 14.0995C5.84056 13.1228 5.29183 11.798 5.29183 10.4167C5.29183 9.03533 5.84056 7.71057 6.81732 6.73382C7.79407 5.75707 9.11883 5.20833 10.5002 5.20833C11.8815 5.20833 13.2063 5.75707 14.183 6.73382C15.1598 7.71057 15.7085 9.03533 15.7085 10.4167C15.7085 11.798 15.1598 13.1228 14.183 14.0995C13.2063 15.0763 11.8815 15.625 10.5002 15.625ZM10.5002 0C10.7764 0 11.0414 0.109747 11.2367 0.305097C11.4321 0.500447 11.5418 0.765399 11.5418 1.04167V3.125C11.5418 3.40127 11.4321 3.66622 11.2367 3.86157C11.0414 4.05692 10.7764 4.16667 10.5002 4.16667C10.2239 4.16667 9.95894 4.05692 9.76359 3.86157C9.56824 3.66622 9.4585 3.40127 9.4585 3.125V1.04167C9.4585 0.765399 9.56824 0.500447 9.76359 0.305097C9.95894 0.109747 10.2239 0 10.5002 0ZM10.5002 16.6667C10.7764 16.6667 11.0414 16.7764 11.2367 16.9718C11.4321 17.1671 11.5418 17.4321 11.5418 17.7083V19.7917C11.5418 20.0679 11.4321 20.3329 11.2367 20.5282C11.0414 20.7236 10.7764 20.8333 10.5002 20.8333C10.2239 20.8333 9.95894 20.7236 9.76359 20.5282C9.56824 20.3329 9.4585 20.0679 9.4585 19.7917V17.7083C9.4585 17.4321 9.56824 17.1671 9.76359 16.9718C9.95894 16.7764 10.2239 16.6667 10.5002 16.6667ZM1.12516 9.375H3.2085C3.48476 9.375 3.74972 9.48475 3.94507 9.6801C4.14042 9.87545 4.25016 10.1404 4.25016 10.4167C4.25016 10.6929 4.14042 10.9579 3.94507 11.1532C3.74972 11.3486 3.48476 11.4583 3.2085 11.4583H1.12516C0.848896 11.4583 0.583944 11.3486 0.388593 11.1532C0.193243 10.9579 0.0834961 10.6929 0.0834961 10.4167C0.0834961 10.1404 0.193243 9.87545 0.388593 9.6801C0.583944 9.48475 0.848896 9.375 1.12516 9.375ZM17.7918 9.375H19.8752C20.1514 9.375 20.4164 9.48475 20.6117 9.6801C20.8071 9.87545 20.9168 10.1404 20.9168 10.4167C20.9168 10.6929 20.8071 10.9579 20.6117 11.1532C20.4164 11.3486 20.1514 11.4583 19.8752 11.4583H17.7918C17.5156 11.4583 17.2506 11.3486 17.0553 11.1532C16.8599 10.9579 16.7502 10.6929 16.7502 10.4167C16.7502 10.1404 16.8599 9.87545 17.0553 9.6801C17.2506 9.48475 17.5156 9.375 17.7918 9.375ZM17.8658 3.05104C18.0611 3.24638 18.1708 3.51129 18.1708 3.7875C18.1708 4.06371 18.0611 4.32862 17.8658 4.52396L16.3929 5.99687C16.2968 6.09636 16.1818 6.17572 16.0548 6.23031C15.9277 6.28491 15.791 6.31364 15.6527 6.31484C15.5144 6.31605 15.3772 6.28969 15.2492 6.23731C15.1212 6.18494 15.0048 6.10759 14.907 6.00979C14.8092 5.91198 14.7319 5.79568 14.6795 5.66766C14.6271 5.53964 14.6008 5.40248 14.602 5.26417C14.6032 5.12585 14.6319 4.98917 14.6865 4.86208C14.7411 4.73499 14.8205 4.62005 14.92 4.52396L16.3929 3.05104C16.5882 2.85576 16.8531 2.74606 17.1293 2.74606C17.4055 2.74606 17.6704 2.85576 17.8658 3.05104ZM6.08037 14.8365C6.27565 15.0318 6.38536 15.2967 6.38536 15.5729C6.38536 15.8491 6.27565 16.114 6.08037 16.3094L4.60745 17.7823C4.51136 17.8818 4.39642 17.9611 4.26933 18.0157C4.14225 18.0703 4.00556 18.0991 3.86725 18.1003C3.72894 18.1015 3.59177 18.0751 3.46375 18.0227C3.33574 17.9704 3.21943 17.893 3.12163 17.7952C3.02382 17.6974 2.94647 17.5811 2.8941 17.4531C2.84172 17.3251 2.81537 17.1879 2.81657 17.0496C2.81777 16.9113 2.84651 16.7746 2.9011 16.6475C2.95569 16.5204 3.03505 16.4055 3.13454 16.3094L4.60745 14.8365C4.8028 14.6412 5.0677 14.5315 5.34391 14.5315C5.62013 14.5315 5.88503 14.6412 6.08037 14.8365ZM4.60745 3.05104L6.08037 4.52396C6.27012 4.72042 6.37511 4.98355 6.37274 5.25667C6.37037 5.52979 6.26082 5.79105 6.06768 5.98419C5.87455 6.17732 5.61329 6.28687 5.34016 6.28924C5.06704 6.29162 4.80392 6.18662 4.60745 5.99687L3.13558 4.52396C2.94583 4.3275 2.84084 4.06437 2.84321 3.79125C2.84558 3.51813 2.95514 3.25686 3.14827 3.06373C3.3414 2.8706 3.60267 2.76105 3.87579 2.75867C4.14891 2.7563 4.41204 2.86129 4.6085 3.05104H4.60745ZM16.3929 14.8365L17.8658 16.3094C18.0555 16.5058 18.1605 16.769 18.1582 17.0421C18.1558 17.3152 18.0462 17.5765 17.8531 17.7696C17.66 17.9627 17.3987 18.0723 17.1256 18.0747C16.8525 18.077 16.5893 17.972 16.3929 17.7823L14.92 16.3094C14.8205 16.2133 14.7411 16.0983 14.6865 15.9713C14.6319 15.8442 14.6032 15.7075 14.602 15.5692C14.6008 15.4309 14.6271 15.2937 14.6795 15.1657C14.7319 15.0377 14.8092 14.9214 14.907 14.8235C15.0048 14.7257 15.1212 14.6484 15.2492 14.596C15.3772 14.5436 15.5144 14.5173 15.6527 14.5185C15.791 14.5197 15.9277 14.5484 16.0548 14.603C16.1818 14.6576 16.2968 14.737 16.3929 14.8365Z" fill="#0B2E4E"/>
</g>
<defs>
<clipPath id="clip0_1031_3793">
<rect width="21" height="21" fill="white"/>
</clipPath>
</defs>
</svg>
