<svg width="21" height="21" viewBox="0 0 21 21" fill="none" xmlns="http://www.w3.org/2000/svg">
<g opacity="0.6">
<path d="M14.4375 9.18619C15.134 9.17518 15.8258 9.30285 16.4724 9.56178C17.1191 9.8207 17.7078 10.2057 18.2043 10.6944C18.7007 11.183 19.095 11.7656 19.3641 12.4081C19.6332 13.0506 19.7718 13.7402 19.7718 14.4368C19.7718 15.1334 19.6332 15.8231 19.3641 16.4656C19.095 17.1081 18.7007 17.6907 18.2043 18.1793C17.7078 18.668 17.1191 19.053 16.4724 19.3119C15.8258 19.5708 15.134 19.6985 14.4375 19.6875C13.0654 19.6568 11.7599 19.0902 10.8004 18.109C9.84086 17.1278 9.30359 15.8099 9.30359 14.4375C9.30359 13.0651 9.84086 11.7472 10.8004 10.766C11.7599 9.78478 13.0654 9.21818 14.4375 9.1875V9.18619ZM3.9375 5.36156V13.7812C3.93737 14.6143 4.25412 15.4162 4.82349 16.0244C5.39286 16.6325 6.17223 17.0013 7.0035 17.0559L7.21875 17.0625H8.41969C8.62444 17.5311 8.88169 17.9721 9.18488 18.375H6.5625C5.51821 18.375 4.51669 17.9602 3.77827 17.2217C3.03984 16.4833 2.625 15.4818 2.625 14.4375V7.21875C2.62479 6.81145 2.75091 6.4141 2.98597 6.08148C3.22104 5.74886 3.55349 5.49733 3.9375 5.36156ZM14.1724 10.5591L14.0726 10.6168L13.9808 10.6916L13.9059 10.7835C13.8303 10.8931 13.7898 11.0231 13.7898 11.1562C13.7898 11.2894 13.8303 11.4194 13.9059 11.529L13.9821 11.6209L16.1411 13.7799L11.1563 13.7812L11.0381 13.7918C10.907 13.8157 10.7863 13.879 10.692 13.9733C10.5978 14.0675 10.5345 14.1883 10.5105 14.3194L10.5 14.4375L10.5105 14.5556C10.5345 14.6867 10.5978 14.8075 10.692 14.9017C10.7863 14.996 10.907 15.0593 11.0381 15.0832L11.1563 15.0938L16.1438 15.0924L13.9821 17.2541L13.9059 17.346C13.8189 17.4724 13.7788 17.6254 13.7929 17.7782C13.8069 17.9311 13.874 18.0742 13.9827 18.1827C14.0913 18.2911 14.2345 18.3581 14.3874 18.3719C14.5403 18.3857 14.6932 18.3455 14.8194 18.2582L14.91 18.1834L18.2306 14.8588L18.2792 14.7932L18.3343 14.6882L18.3684 14.5792L18.3816 14.4952V14.3798L18.3684 14.2958L18.3343 14.1868L18.2792 14.0818L18.2306 14.0162L14.91 10.6916L14.8181 10.6168C14.7247 10.5521 14.6161 10.5127 14.5029 10.5026C14.3897 10.4925 14.2758 10.5119 14.1724 10.5591ZM13.7813 2.625C14.3034 2.625 14.8042 2.83242 15.1734 3.20163C15.5426 3.57085 15.75 4.07161 15.75 4.59375V8.00494C15.318 7.91744 14.8783 7.87347 14.4375 7.87369V4.59375C14.4375 4.4197 14.3684 4.25278 14.2453 4.12971C14.1222 4.00664 13.9553 3.9375 13.7813 3.9375H7.21875C7.0447 3.9375 6.87778 4.00664 6.75471 4.12971C6.63164 4.25278 6.5625 4.4197 6.5625 4.59375V13.7812C6.5625 13.9553 6.63164 14.1222 6.75471 14.2453C6.87778 14.3684 7.0447 14.4375 7.21875 14.4375H7.87369C7.87369 14.8877 7.91831 15.3261 8.00494 15.75H7.21875C6.69661 15.75 6.19585 15.5426 5.82663 15.1734C5.45742 14.8042 5.25 14.3034 5.25 13.7812V4.59375C5.25 4.07161 5.45742 3.57085 5.82663 3.20163C6.19585 2.83242 6.69661 2.625 7.21875 2.625H13.7813Z" fill="#0B2E4E"/>
</g>
</svg>
