<svg width="21" height="21" viewBox="0 0 21 21" fill="none" xmlns="http://www.w3.org/2000/svg">
<g opacity="0.6">
<path d="M10.5 4.4624H6C5.46957 4.4624 4.96086 4.67312 4.58579 5.04819C4.21071 5.42326 4 5.93197 4 6.4624V15.4624C4 15.9928 4.21071 16.5015 4.58579 16.8766C4.96086 17.2517 5.46957 17.4624 6 17.4624H16C16.5304 17.4624 17.0391 17.2517 17.4142 16.8766C17.7893 16.5015 18 15.9928 18 15.4624V10.9624" stroke="#0B2E4E" stroke-width="1.5" stroke-linecap="round" stroke-linejoin="round"/>
<path fill-rule="evenodd" clip-rule="evenodd" d="M18 3.42952C18.2666 3.70517 18.4142 4.07453 18.411 4.458C18.4078 4.84146 18.2541 5.20832 17.983 5.47952L11 12.4625L8 13.4625L9 10.4625L15.987 3.41652C16.2326 3.16899 16.5613 3.02135 16.9095 3.00214C17.2577 2.98293 17.6006 3.09352 17.872 3.31252L18 3.42952Z" stroke="#0B2E4E" stroke-width="1.5" stroke-linecap="round" stroke-linejoin="round"/>
<path d="M16 5.4624L16.953 6.4624" stroke="#0B2E4E" stroke-width="1.5" stroke-linecap="round" stroke-linejoin="round"/>
</g>
</svg>
