<svg width="21" height="21" viewBox="0 0 21 21" fill="none" xmlns="http://www.w3.org/2000/svg">
<g opacity="0.6">
<path d="M10.5 1.53125C11.2264 1.5312 11.9252 1.80911 12.4532 2.30796C12.9812 2.80682 13.2983 3.48879 13.3394 4.214L13.3438 4.375H17.9375C18.1038 4.37505 18.2638 4.43821 18.3853 4.55173C18.5068 4.66524 18.5807 4.82064 18.592 4.98652C18.6034 5.1524 18.5513 5.31641 18.4464 5.44539C18.3414 5.57437 18.1915 5.65871 18.0267 5.68138L17.9375 5.6875H17.241L16.121 17.08C16.0649 17.648 15.8087 18.1775 15.3982 18.574C14.9878 18.9706 14.4497 19.2083 13.8801 19.2447L13.7261 19.25H7.27387C6.7029 19.25 6.15054 19.0469 5.71551 18.6771C5.28047 18.3073 4.9911 17.7949 4.89913 17.2314L4.879 17.0791L3.75813 5.6875H3.0625C2.90392 5.68749 2.7507 5.63006 2.63119 5.52583C2.51167 5.42159 2.43394 5.27761 2.41237 5.1205L2.40625 5.03125C2.40626 4.87267 2.46369 4.71945 2.56792 4.59994C2.67215 4.48042 2.81614 4.40269 2.97325 4.38112L3.0625 4.375H7.65625C7.65625 3.62079 7.95586 2.89747 8.48917 2.36417C9.02247 1.83086 9.74579 1.53125 10.5 1.53125ZM15.9224 5.6875H5.07675L6.18537 16.9505C6.20992 17.2018 6.32067 17.4369 6.49882 17.6158C6.67697 17.7948 6.91155 17.9066 7.16275 17.9322L7.27387 17.9375H13.7261C14.2511 17.9375 14.6965 17.5656 14.798 17.0607L14.8155 16.9505L15.9215 5.6875H15.9224ZM12.0312 8.09375C12.1898 8.09376 12.343 8.15119 12.4626 8.25542C12.5821 8.35965 12.6598 8.50364 12.6814 8.66075L12.6875 8.75V14.875C12.6874 15.0413 12.6243 15.2013 12.5108 15.3228C12.3973 15.4443 12.2419 15.5182 12.076 15.5295C11.9101 15.5409 11.7461 15.4888 11.6171 15.3839C11.4881 15.2789 11.4038 15.129 11.3811 14.9642L11.375 14.875V8.75C11.375 8.57595 11.4441 8.40903 11.5672 8.28596C11.6903 8.16289 11.8572 8.09375 12.0312 8.09375ZM8.96875 8.09375C9.12733 8.09376 9.28055 8.15119 9.40006 8.25542C9.51958 8.35965 9.59731 8.50364 9.61888 8.66075L9.625 8.75V14.875C9.62495 15.0413 9.56179 15.2013 9.44827 15.3228C9.33476 15.4443 9.17936 15.5182 9.01348 15.5295C8.8476 15.5409 8.68359 15.4888 8.55461 15.3839C8.42563 15.2789 8.34129 15.129 8.31862 14.9642L8.3125 14.875V8.75C8.3125 8.57595 8.38164 8.40903 8.50471 8.28596C8.62778 8.16289 8.7947 8.09375 8.96875 8.09375ZM10.5 2.84375C10.1157 2.84376 9.74547 2.98827 9.46278 3.24859C9.18009 3.50892 9.00562 3.86601 8.974 4.249L8.96875 4.375H12.0312C12.0312 3.96889 11.8699 3.57941 11.5828 3.29224C11.2956 3.00508 10.9061 2.84375 10.5 2.84375Z" fill="#0B2E4E"/>
</g>
</svg>
