<svg width="21" height="21" viewBox="0 0 21 21" fill="none" xmlns="http://www.w3.org/2000/svg">
<g opacity="0.6">
<path d="M2.75 16.4167V3.58333C2.75 3.0971 2.94315 2.63079 3.28697 2.28697C3.63079 1.94315 4.0971 1.75 4.58333 1.75H14.8243C15.3105 1.7501 15.7768 1.94333 16.1205 2.28717L18.7128 4.8795C19.0567 5.22324 19.2499 5.68948 19.25 6.17567V16.4167C19.25 16.9029 19.0568 17.3692 18.713 17.713C18.3692 18.0568 17.9029 18.25 17.4167 18.25H4.58333C4.0971 18.25 3.63079 18.0568 3.28697 17.713C2.94315 17.3692 2.75 16.9029 2.75 16.4167Z" stroke="#0B2E4E" stroke-width="1.5"/>
<path d="M7.88331 7.25H14.1166C14.2625 7.25 14.4024 7.19205 14.5056 7.08891C14.6087 6.98576 14.6666 6.84587 14.6666 6.7V2.3C14.6666 2.15413 14.6087 2.01424 14.5056 1.91109C14.4024 1.80795 14.2625 1.75 14.1166 1.75H7.88331C7.73744 1.75 7.59755 1.80795 7.4944 1.91109C7.39126 2.01424 7.33331 2.15413 7.33331 2.3V6.7C7.33331 6.84587 7.39126 6.98576 7.4944 7.08891C7.59755 7.19205 7.73744 7.25 7.88331 7.25V7.25Z" stroke="#0B2E4E" stroke-width="1.5"/>
<path d="M5.5 11.4667V18.2501H16.5V11.4667C16.5 11.3209 16.4421 11.181 16.3389 11.0778C16.2358 10.9747 16.0959 10.9167 15.95 10.9167H6.05C5.90413 10.9167 5.76424 10.9747 5.66109 11.0778C5.55795 11.181 5.5 11.3209 5.5 11.4667V11.4667Z" stroke="#0B2E4E" stroke-width="1.5"/>
</g>
</svg>
