<svg width="21" height="21" viewBox="0 0 21 21" fill="none" xmlns="http://www.w3.org/2000/svg">
<g opacity="0.6">
<path fill-rule="evenodd" clip-rule="evenodd" d="M3.643 6.14307L2.427 4.92707C2.39204 4.89202 2.34745 4.86814 2.2989 4.85846C2.25034 4.84877 2.20001 4.85372 2.15427 4.87268C2.10853 4.89164 2.06945 4.92375 2.04199 4.96495C2.01453 5.00614 1.99991 5.05456 2 5.10407V8.75007C2 8.88807 2.112 9.00007 2.25 9.00007H5.896C5.94551 9.00016 5.99393 8.98555 6.03513 8.95808C6.07632 8.93062 6.10843 8.89154 6.12739 8.84581C6.14635 8.80007 6.1513 8.74973 6.14162 8.70118C6.13194 8.65262 6.10805 8.60804 6.073 8.57307L4.715 7.21507C5.60023 5.97872 6.89091 5.09186 8.36246 4.70878C9.83401 4.32571 11.3933 4.47067 12.769 5.11845C14.1447 5.76623 15.2498 6.87583 15.8919 8.25418C16.5341 9.63253 16.6727 11.1924 16.2836 12.6624C15.8945 14.1323 15.0023 15.4194 13.7624 16.2995C12.5224 17.1797 11.0131 17.5973 9.49708 17.4797C7.98105 17.362 6.55424 16.7166 5.4649 15.6557C4.37557 14.5947 3.69266 13.1855 3.535 11.6731C3.51458 11.4751 3.41634 11.2933 3.26191 11.1678C3.10747 11.0422 2.90948 10.9832 2.7115 11.0036C2.51352 11.024 2.33175 11.1222 2.2062 11.2767C2.08064 11.4311 2.02158 11.6291 2.042 11.8271C2.23439 13.6783 3.06615 15.4046 4.3941 16.7087C5.72206 18.0127 7.46311 18.8131 9.31753 18.9719C11.172 19.1307 13.0237 18.638 14.554 17.5786C16.0844 16.5193 17.1975 14.9596 17.7018 13.168C18.2061 11.3764 18.0701 9.46506 17.3171 7.76298C16.5641 6.0609 15.2412 4.67459 13.5763 3.84271C11.9113 3.01082 10.0084 2.78541 8.1952 3.20528C6.38196 3.62515 4.77184 4.66403 3.642 6.14307H3.643ZM9.75 7.00007C9.94891 7.00007 10.1397 7.07909 10.2803 7.21974C10.421 7.3604 10.5 7.55116 10.5 7.75007V10.7421L12.528 11.5541C12.7067 11.632 12.8481 11.7764 12.9221 11.9568C12.9961 12.1371 12.997 12.3392 12.9246 12.5202C12.8522 12.7012 12.7121 12.8469 12.5341 12.9264C12.3561 13.0059 12.1541 13.013 11.971 12.9461L9.471 11.9461C9.33197 11.8904 9.21281 11.7943 9.12886 11.6702C9.04492 11.5462 9.00004 11.3999 9 11.2501V7.75007C9 7.55116 9.07902 7.3604 9.21967 7.21974C9.36032 7.07909 9.55109 7.00007 9.75 7.00007Z" fill="#0B2E4E"/>
</g>
</svg>
