<svg width="37" height="37" viewBox="0 0 37 37" fill="none" xmlns="http://www.w3.org/2000/svg">
<path fill-rule="evenodd" clip-rule="evenodd" d="M18.5 0.583374C28.3792 0.583374 36.4167 8.62079 36.4167 18.5C36.4167 28.3793 28.3792 36.4167 18.5 36.4167C8.62075 36.4167 0.583332 28.3793 0.583332 18.5C0.583332 8.62079 8.62075 0.583374 18.5 0.583374ZM18.5 3.27087C10.1025 3.27087 3.27083 10.1025 3.27083 18.5C3.27083 26.8976 10.1025 33.7292 18.5 33.7292C26.8975 33.7292 33.7292 26.8976 33.7292 18.5C33.7292 10.1025 26.8975 3.27087 18.5 3.27087Z" fill="#FFE565"/>
<path d="M17.4283 27.5747L17.4277 27.5662L17.4201 27.4536L17.4196 27.4452V27.4368L17.4202 13.4462L12.5959 18.2903C12.5959 18.2903 12.5959 18.2903 12.5958 18.2903C12.1749 18.7131 11.4909 18.7146 11.0681 18.2936C10.6835 17.9107 10.6476 17.3108 10.9607 16.887L10.9661 16.8796L10.9722 16.8726L11.0523 16.7793L11.0583 16.7723L11.0648 16.7658L17.7339 10.0679C17.7892 10.0124 17.8492 9.96403 17.9127 9.92286L17.9187 9.91895L17.9188 9.91904C17.9325 9.91069 17.9497 9.90029 17.968 9.88993C17.9881 9.87795 18.0074 9.86796 18.0242 9.85975L18.0282 9.85776L18.0283 9.85779C18.0508 9.84724 18.0758 9.83612 18.1025 9.82557C18.1256 9.81609 18.1473 9.80844 18.1675 9.80191L18.1704 9.80098L18.1704 9.801C18.1938 9.79378 18.2196 9.78646 18.2467 9.77995C18.2677 9.77467 18.2873 9.77062 18.3057 9.76728L18.308 9.76685C18.334 9.76241 18.3616 9.75847 18.3902 9.75558C18.414 9.75294 18.4368 9.75143 18.4584 9.75062L18.4639 9.75041L18.4639 9.75047L18.4679 9.7504C18.4767 9.75026 18.4883 9.75006 18.4999 9.75006C18.501 9.75006 18.502 9.75006 18.5031 9.75006L17.4283 27.5747ZM17.4283 27.5747L17.4294 27.583M17.4283 27.5747L17.4294 27.583M17.4294 27.583C17.501 28.1106 17.9528 28.5171 18.4999 28.5171C19.0965 28.5171 19.5802 28.0334 19.5802 27.4368C19.5802 27.4368 19.5802 27.4368 19.5802 27.4368L19.5808 13.4483M17.4294 27.583L19.5808 13.4483M19.5808 13.4483L24.4042 18.2904L24.4107 18.2969L24.4176 18.3029L24.5105 18.3835L24.5175 18.3895L24.5249 18.395C24.9474 18.7098 25.5475 18.6764 25.932 18.2936C26.3548 17.8725 26.3562 17.1885 25.9352 16.7658L19.276 10.079L19.2751 10.0778L19.2638 10.0665C19.23 10.0327 19.1941 10.0012 19.1561 9.97211L19.1542 9.97071L19.1446 9.96353L19.1438 9.96293C19.1279 9.95107 19.1116 9.93958 19.0954 9.92894C19.0953 9.92887 19.0952 9.9288 19.0951 9.92873L18.9575 10.1374M19.5808 13.4483L18.5265 9.75039C18.5295 9.75046 18.5324 9.75054 18.5353 9.75063C18.5375 9.7507 18.5396 9.75078 18.5418 9.75086C18.5631 9.75168 18.5842 9.75311 18.6052 9.75515L18.5872 10.0046C18.6095 10.0069 18.6315 10.0101 18.6533 10.0142M18.9575 10.1374C18.9404 10.1261 18.9229 10.1154 18.9044 10.1051C18.8931 10.0987 18.8817 10.0927 18.8708 10.0873M18.9575 10.1374C18.9696 10.1454 18.9822 10.1542 18.9945 10.1635L18.9575 10.1374ZM18.8708 10.0873L18.9826 9.86371C18.9823 9.86353 18.9819 9.86335 18.9815 9.86317L18.8708 10.0873ZM18.8708 10.0873C18.8476 10.0757 18.8238 10.0652 18.7988 10.0555C18.7864 10.0507 18.7738 10.0462 18.7621 10.0423M18.7621 10.0423L18.841 9.80509C18.8409 9.80504 18.8407 9.805 18.8406 9.80495C18.8404 9.8049 18.8403 9.80486 18.8402 9.80482L18.7621 10.0423ZM18.7621 10.0423C18.7385 10.0345 18.7144 10.0277 18.6895 10.0218C18.6773 10.0189 18.6651 10.0163 18.6533 10.0142M18.6533 10.0142L18.6991 9.76844C18.6989 9.7684 18.6987 9.76837 18.6985 9.76833C18.6983 9.76829 18.6981 9.76825 18.6979 9.76821L18.6533 10.0142Z" fill="#FFE565" stroke="#FFE565" stroke-width="0.5"/>
</svg>
