<svg width="26" height="26" viewBox="0 0 26 26" fill="none" xmlns="http://www.w3.org/2000/svg">
<path fill-rule="evenodd" clip-rule="evenodd" d="M0.5 13C0.5 6.1075 6.1075 0.499996 13 0.499996C19.8925 0.499996 25.5 6.1075 25.5 13C25.5 19.8925 19.8925 25.5 13 25.5C6.1075 25.5 0.5 19.8925 0.5 13ZM2.375 13C2.375 18.8587 7.14125 23.625 13 23.625C18.8588 23.625 23.625 18.8587 23.625 13C23.625 7.14125 18.8588 2.375 13 2.375C7.14125 2.375 2.375 7.14125 2.375 13Z" fill="#0B2E4E"/>
<path d="M19.339 13.8228L19.3305 13.8234L19.2519 13.8287L19.2436 13.8293L19.2351 13.8293L9.6573 13.8288L12.9072 17.0655C12.9073 17.0655 12.9073 17.0655 12.9073 17.0655C13.2318 17.3887 13.2329 17.9137 12.9098 18.2383C12.6158 18.5335 12.1553 18.561 11.8299 18.3207L11.8225 18.3152L11.8155 18.3092L11.7504 18.2532L11.7435 18.2473L11.737 18.2408L7.06402 13.5879C7.02148 13.5456 6.98434 13.4995 6.95272 13.4507L6.94882 13.4447L6.9489 13.4447C6.94317 13.4352 6.93549 13.4226 6.92771 13.4089C6.91821 13.3928 6.91042 13.3777 6.90424 13.3651L6.90225 13.361L6.90228 13.361C6.89455 13.3445 6.8862 13.3257 6.87818 13.3055C6.87074 13.2874 6.8648 13.2705 6.85983 13.255L6.8589 13.2522L6.85892 13.2522C6.85354 13.2347 6.84802 13.2153 6.84305 13.1946M19.339 13.8228L6.82001 12.9967C6.82001 12.9978 6.82001 12.9989 6.82001 13C6.82001 13.0101 6.82021 13.0203 6.82031 13.0263L6.82025 13.0263L6.82045 13.0317C6.82108 13.0482 6.82223 13.0658 6.82428 13.0844M19.339 13.8228L19.3474 13.8217C19.7524 13.7668 20.0645 13.42 20.0645 13C20.0645 12.542 19.6932 12.1707 19.2352 12.1707C19.2352 12.1707 19.2352 12.1707 19.2352 12.1707L9.6587 12.1702M19.339 13.8228L9.6587 12.1702M6.84305 13.1946C6.83893 13.1782 6.83579 13.163 6.83325 13.149L6.83281 13.1466L6.83283 13.1466C6.82948 13.1271 6.82649 13.1062 6.82428 13.0844M6.84305 13.1946C6.84319 13.1952 6.84335 13.1958 6.8435 13.1964L7.08581 13.1349L6.84263 13.1929C6.84277 13.1935 6.84291 13.194 6.84305 13.1946ZM6.82428 13.0844C6.82434 13.0849 6.8244 13.0855 6.82446 13.086L7.07289 13.0581L6.82412 13.0828C6.82417 13.0833 6.82422 13.0839 6.82428 13.0844ZM9.6587 12.1702L12.9073 8.93422L12.9138 8.92776L12.9198 8.92085L12.976 8.856L12.9821 8.84902L12.9876 8.84162C13.2293 8.51729 13.2037 8.05663 12.9097 7.76144C12.5865 7.43691 12.0615 7.43583 11.7369 7.75902L7.07506 12.4016L7.07416 12.4023L7.06291 12.4136C7.03701 12.4395 7.01281 12.4671 6.9905 12.4962L6.98911 12.4981L6.98409 12.5047L6.98348 12.5056C6.97442 12.5177 6.96559 12.5303 6.95735 12.5428C6.95729 12.5429 6.95722 12.543 6.95716 12.5431L7.16585 12.6807M9.6587 12.1702L6.82025 12.98C6.8203 12.9781 6.82035 12.9762 6.82041 12.9743C6.82047 12.9721 6.82055 12.9699 6.82063 12.9678C6.82126 12.9514 6.82236 12.9352 6.82392 12.9191L7.07339 12.9371C7.07499 12.9222 7.07716 12.9075 7.07988 12.893M7.16585 12.6807C7.15796 12.6926 7.1505 12.7049 7.14326 12.7177C7.13885 12.7256 7.13464 12.7336 7.13088 12.7412M7.16585 12.6807C7.17141 12.6723 7.17757 12.6635 7.18401 12.6549L7.16585 12.6807ZM7.13088 12.7412L6.90729 12.6294C6.9072 12.6295 6.90711 12.6297 6.90702 12.6299C6.90693 12.6301 6.90684 12.6303 6.90675 12.6305L7.13088 12.7412ZM7.13088 12.7412C7.12279 12.7574 7.11543 12.774 7.10866 12.7914C7.10531 12.8001 7.10218 12.8088 7.09949 12.817M7.09949 12.817L6.86227 12.7381C6.86222 12.7383 6.86218 12.7384 6.86213 12.7386C6.86208 12.7387 6.86203 12.7388 6.86199 12.739L7.09949 12.817ZM7.09949 12.817C7.09402 12.8335 7.08926 12.8503 7.08515 12.8677C7.08317 12.8762 7.08138 12.8847 7.07988 12.893M7.07988 12.893L6.83412 12.8471C6.83408 12.8473 6.83404 12.8475 6.834 12.8477C6.83397 12.8479 6.83393 12.8481 6.83389 12.8484L7.07988 12.893ZM7.07008 13.0058L7.07001 13L7.07008 13.0058Z" fill="#0B2E4E" stroke="#0B2E4E" stroke-width="0.5"/>
</svg>
