<svg width="26" height="26" viewBox="0 0 26 26" fill="none" xmlns="http://www.w3.org/2000/svg">
<path fill-rule="evenodd" clip-rule="evenodd" d="M25.5 13C25.5 19.8925 19.8925 25.5 13 25.5C6.1075 25.5 0.499995 19.8925 0.499996 13C0.499996 6.1075 6.1075 0.499999 13 0.499999C19.8925 0.5 25.5 6.1075 25.5 13ZM23.625 13C23.625 7.14125 18.8587 2.375 13 2.375C7.14125 2.375 2.375 7.14125 2.375 13C2.375 18.8588 7.14125 23.625 13 23.625C18.8587 23.625 23.625 18.8588 23.625 13Z" fill="#0B2E4E"/>
<path d="M6.66101 12.1772L6.66945 12.1766L6.74806 12.1713L6.75645 12.1707L6.76485 12.1707L16.3427 12.1712L13.0928 8.9345C13.0927 8.9345 13.0927 8.93449 13.0927 8.93448C12.7682 8.61132 12.7671 8.08626 13.0902 7.76171C13.3842 7.4665 13.8447 7.43897 14.1701 7.6793L14.1775 7.68478L14.1845 7.6908L14.2496 7.74675L14.2565 7.75272L14.263 7.75918L18.936 12.4121C18.9785 12.4544 19.0157 12.5005 19.0473 12.5493L19.0512 12.5553L19.0511 12.5553C19.0568 12.5647 19.0645 12.5773 19.0722 12.591C19.0818 12.6071 19.0896 12.6222 19.0958 12.6349L19.0978 12.639L19.0977 12.639C19.1054 12.6555 19.1138 12.6742 19.1218 12.6944C19.1292 12.7126 19.1352 12.7295 19.1402 12.745L19.1411 12.7478L19.1411 12.7478C19.1465 12.7653 19.152 12.7848 19.157 12.8054C19.1611 12.8218 19.1642 12.837 19.1668 12.851L19.1672 12.8534L19.1672 12.8534C19.1705 12.8729 19.1735 12.8938 19.1757 12.9156C19.1778 12.9342 19.1789 12.9518 19.1795 12.9683L19.1797 12.9737L19.1797 12.9737L19.1797 12.9763C19.1798 12.9825 19.18 12.9913 19.18 13C19.18 13.0011 19.18 13.0022 19.18 13.0033L6.66101 12.1772ZM6.66101 12.1772L6.65263 12.1783M6.66101 12.1772L6.65263 12.1783M6.65263 12.1783C6.2476 12.2332 5.93555 12.58 5.93555 13C5.93555 13.458 6.30683 13.8293 6.76483 13.8293C6.76483 13.8293 6.76484 13.8293 6.76484 13.8293L16.3413 13.8298M6.65263 12.1783L16.3413 13.8298M16.3413 13.8298L13.0927 17.0658L13.0862 17.0722L13.0802 17.0791L13.024 17.144L13.0179 17.151L13.0124 17.1584C12.7707 17.4827 12.7963 17.9434 13.0903 18.2386C13.4135 18.5631 13.9385 18.5642 14.2631 18.241L18.9249 13.5984L18.9258 13.5977L18.9371 13.5864C18.963 13.5605 18.9872 13.5329 19.0095 13.5038L19.0109 13.5019L19.0159 13.4953L19.0165 13.4944C19.0257 13.4822 19.0346 13.4695 19.0428 13.4569L18.8342 13.3193M16.3413 13.8298L18.816 13.3451C18.8224 13.3365 18.8286 13.3277 18.8342 13.3193M18.8342 13.3193C18.842 13.3074 18.8495 13.2951 18.8567 13.2823C18.8611 13.2744 18.8654 13.2664 18.8691 13.2588M18.8342 13.3193L19.0426 13.4572C19.054 13.4401 19.0645 13.4228 19.0746 13.4049L19.0749 13.4043C19.0811 13.3933 19.0872 13.3817 19.093 13.3701M18.8691 13.2588L19.0927 13.3706C19.0928 13.3705 19.0929 13.3703 19.093 13.3701M18.8691 13.2588C18.8772 13.2426 18.8846 13.226 18.8913 13.2086L18.8691 13.2588ZM19.093 13.3701C19.1045 13.347 19.1149 13.3234 19.1244 13.2991L19.1246 13.2986C19.1293 13.2864 19.1338 13.2738 19.1379 13.2614M19.093 13.3701L19.1379 13.2614M19.1379 13.2614C19.1378 13.2616 19.1378 13.2617 19.1377 13.2619L18.9005 13.183L19.138 13.261C19.138 13.2612 19.1379 13.2613 19.1379 13.2614ZM19.1379 13.2614C19.1457 13.2379 19.1524 13.214 19.1582 13.1897L19.1583 13.1893C19.161 13.1774 19.1637 13.165 19.166 13.1523M19.1379 13.2614L19.1797 13.02L19.1797 13.0257L19.1796 13.0322L19.1795 13.0322C19.1789 13.0485 19.1778 13.0647 19.1762 13.0809L19.1761 13.0809C19.1737 13.105 19.1704 13.1288 19.166 13.1523M19.166 13.1523C19.166 13.1525 19.1659 13.1527 19.1659 13.1529L18.9201 13.107L19.1661 13.1516C19.1661 13.1519 19.166 13.1521 19.166 13.1523Z" fill="#0B2E4E" stroke="#0B2E4E" stroke-width="0.5"/>
</svg>
