<svg width="27" height="27" viewBox="0 0 27 27" fill="none" xmlns="http://www.w3.org/2000/svg">
<path d="M24.0829 21.6367H24.1829V21.5367V5.64811V5.54811H24.0829H2.8981H2.79771L2.7981 5.6485L2.81134 9.01159L2.81157 9.06894L2.86118 9.09771C4.40708 9.99407 5.4462 11.6698 5.4462 13.5924C5.4462 15.5015 4.39414 17.1906 2.84794 18.0871L2.7981 18.116V18.1736V21.5367V21.6367H2.8981H24.0829ZM13.2991 14.7076L10.1862 9.31203L11.8609 8.85747L17.1296 13.7715L17.1701 13.8092L17.2236 13.795L20.4541 12.9344C20.4541 12.9344 20.4541 12.9344 20.4541 12.9344C20.7551 12.8548 21.0754 12.8974 21.3452 13.0528C21.6146 13.2081 21.8119 13.4635 21.8942 13.7633C21.9698 14.0677 21.9242 14.3895 21.7668 14.6608C21.6095 14.9322 21.3527 15.1318 21.0509 15.2173C21.0506 15.2173 21.0504 15.2174 21.0501 15.2175L9.39458 18.3221L7.29992 14.688L8.35727 14.4037L9.98619 15.6836L10.0255 15.7145L10.0738 15.7016L13.2383 14.8542L13.3642 14.8205L13.2991 14.7076ZM2.8981 3.1H24.3345C25.594 3.1 26.631 4.23708 26.631 5.64811V21.5367C26.631 22.938 25.4841 24.0848 24.0829 24.0848H2.8981C1.49687 24.0848 0.35 22.938 0.35 21.5367V16.3388C1.82835 16.2861 2.9981 15.0706 2.9981 13.5924C2.9981 12.1148 1.8291 10.8992 0.36324 10.8461V5.64811C0.36324 4.24622 1.49753 3.1 2.8981 3.1Z" fill="#0B2E4E" stroke="white" stroke-width="0.2"/>
</svg>
