<svg width="27" height="27" viewBox="0 0 27 27" fill="none" xmlns="http://www.w3.org/2000/svg">
<path d="M16.3483 2.36719C16.7848 2.25026 17.24 2.22045 17.6881 2.27947C18.1361 2.3385 18.5681 2.48519 18.9594 2.71117C19.3507 2.93716 19.6937 3.23801 19.9687 3.59655C20.2438 3.95509 20.4455 4.3643 20.5624 4.80081L23.9632 17.4906C24.0801 17.9271 24.1099 18.3824 24.0509 18.8304C23.9919 19.2784 23.8452 19.7104 23.6192 20.1017C23.3932 20.4931 23.0924 20.836 22.7338 21.1111C22.3753 21.3861 21.9661 21.5879 21.5296 21.7047L13.6757 23.8105C13.239 23.9278 12.7835 23.9579 12.3352 23.8991C11.8869 23.8403 11.4546 23.6936 11.063 23.4676C10.6714 23.2416 10.3282 22.9406 10.053 22.5819C9.77779 22.2232 9.57598 21.8137 9.4591 21.3769L6.05955 8.68709C5.94262 8.25059 5.91281 7.79534 5.97183 7.34732C6.03086 6.89931 6.17755 6.46731 6.40353 6.07598C6.62952 5.68466 6.93037 5.34169 7.28891 5.06665C7.64745 4.7916 8.05666 4.58988 8.49316 4.47299L16.3483 2.36719ZM6.04704 13.4792L8.25168 21.6997C8.46828 22.5147 8.90152 23.2558 9.5054 23.8443L8.95111 23.8143C8.0399 23.7664 7.185 23.3586 6.57446 22.6805C5.96392 22.0024 5.64774 21.1095 5.69545 20.1983L6.04704 13.4792ZM16.8338 4.1802L8.97864 6.28725C8.5782 6.39459 8.23676 6.65653 8.02936 7.0155C7.82196 7.37446 7.76556 7.80109 7.87256 8.20161L11.2721 20.8927C11.3253 21.0911 11.417 21.2771 11.542 21.4401C11.667 21.6031 11.8229 21.7398 12.0008 21.8425C12.1787 21.9452 12.3751 22.0119 12.5787 22.0387C12.7824 22.0655 12.9893 22.052 13.1877 21.9988L21.0441 19.893C21.4445 19.7856 21.786 19.5237 21.9934 19.1647C22.2008 18.8058 22.2572 18.3792 22.1502 17.9786L18.7494 5.28628C18.642 4.88584 18.3801 4.5444 18.0211 4.337C17.6622 4.1296 17.2355 4.0732 16.835 4.1802H16.8338ZM4.88966 11.6299L4.44548 20.1332C4.39919 21.0066 4.59563 21.8374 4.976 22.5606L4.45799 22.3591C4.03611 22.1972 3.65025 21.9538 3.32245 21.6428C2.99464 21.3317 2.73132 20.9591 2.54751 20.5463C2.3637 20.1335 2.26301 19.6885 2.25118 19.2368C2.23935 18.7851 2.31662 18.3354 2.47857 17.9136L4.88966 11.6299ZM10.9743 7.69362C11.1331 7.65106 11.2986 7.64019 11.4615 7.66161C11.6245 7.68303 11.7816 7.73634 11.9239 7.81848C12.0662 7.90063 12.191 8.01 12.291 8.14036C12.3911 8.27072 12.4645 8.41951 12.5071 8.57823C12.5496 8.73696 12.5605 8.90251 12.5391 9.06544C12.5176 9.22837 12.4643 9.38548 12.3822 9.52781C12.3001 9.67014 12.1907 9.79489 12.0603 9.89495C11.93 9.99501 11.7812 10.0684 11.6225 10.111C11.4637 10.1535 11.2982 10.1644 11.1352 10.143C10.9723 10.1216 10.8152 10.0683 10.6729 9.98611C10.3854 9.82021 10.1757 9.54692 10.0897 9.22636C10.0038 8.9058 10.0487 8.56423 10.2146 8.27678C10.3805 7.98934 10.6538 7.77957 10.9743 7.69362Z" fill="#0B2E4E"/>
</svg>
