<svg width="27" height="27" viewBox="0 0 27 27" fill="none" xmlns="http://www.w3.org/2000/svg">
<path d="M13.8843 10.2075H16.3111V6.56717H19.9514V4.1403H16.3111V0.5H13.8843V4.1403H10.244V6.56717H13.8843V10.2075ZM9.03057 21.1284C7.6958 21.1284 6.61585 22.2205 6.61585 23.5552C6.61585 24.89 7.6958 25.9821 9.03057 25.9821C10.3653 25.9821 11.4574 24.89 11.4574 23.5552C11.4574 22.2205 10.3653 21.1284 9.03057 21.1284ZM21.1649 21.1284C19.8301 21.1284 18.7501 22.2205 18.7501 23.5552C18.7501 24.89 19.8301 25.9821 21.1649 25.9821C22.4996 25.9821 23.5917 24.89 23.5917 23.5552C23.5917 22.2205 22.4996 21.1284 21.1649 21.1284ZM10.3653 15.0612H19.4054C20.3155 15.0612 21.1163 14.5637 21.5289 13.8114L26.2127 5.3052L24.1014 4.1403L19.4054 12.6343H10.8871L5.71791 1.71343H1.75V4.1403H4.17686L8.5452 13.3503L6.90707 16.311C6.02127 17.937 7.18616 19.9149 9.03057 19.9149H23.5917V17.4881H9.03057L10.3653 15.0612Z" fill="#0B2E4E"/>
</svg>
