<svg width="26" height="26" viewBox="0 0 26 26" fill="none" xmlns="http://www.w3.org/2000/svg">
<path d="M11.6 15.25L11.6 15.25C11.6 15.3867 11.6362 15.5208 11.7048 15.639C11.7734 15.7571 11.872 15.855 11.9906 15.9227L16.3656 18.4227L16.3656 18.4228L16.3687 18.4245C16.5467 18.5207 16.7553 18.5434 16.9499 18.4879C17.1445 18.4323 17.3096 18.3029 17.41 18.1272C17.5104 17.9515 17.5381 17.7435 17.4872 17.5476C17.4363 17.3518 17.3108 17.1836 17.1375 17.0791L17.1375 17.079L17.1344 17.0773L13.15 14.8005V8.375C13.15 8.16946 13.0683 7.97233 12.923 7.82699C12.7777 7.68165 12.5805 7.6 12.375 7.6C12.1695 7.6 11.9723 7.68165 11.827 7.82699C11.6817 7.97233 11.6 8.16946 11.6 8.375L11.6 15.25Z" fill="#0B2E4E" stroke="#0B2E4E" stroke-width="0.3"/>
<path d="M13 24.15C15.6919 24.15 18.2736 23.0806 20.1771 21.1771C22.0806 19.2736 23.15 16.6919 23.15 14C23.15 11.3081 22.0806 8.72636 20.1771 6.82287C18.2736 4.91937 15.6919 3.85 13 3.85C10.3081 3.85 7.72636 4.91937 5.82287 6.82287C3.91937 8.72636 2.85 11.3081 2.85 14C2.85 16.6919 3.91937 19.2736 5.82287 21.1771C7.72636 23.0806 10.3081 24.15 13 24.15ZM21.6 14C21.6 16.2809 20.6939 18.4683 19.0811 20.0811C17.4683 21.6939 15.2809 22.6 13 22.6C10.7191 22.6 8.53169 21.6939 6.91888 20.0811C5.30607 18.4683 4.4 16.2809 4.4 14C4.4 11.7191 5.30607 9.53169 6.91888 7.91888C8.53169 6.30607 10.7191 5.4 13 5.4C15.2809 5.4 17.4683 6.30607 19.0811 7.91888C20.6939 9.53169 21.6 11.7191 21.6 14Z" fill="#0B2E4E" stroke="#0B2E4E" stroke-width="0.3"/>
</svg>
