<svg width="13" height="12" viewBox="0 0 13 12" fill="none" xmlns="http://www.w3.org/2000/svg">
<g clip-path="url(#clip0_197_2995)">
<path d="M4.81286 5.99987L0.692524 10.1186L0.69251 10.1187C0.609619 10.2016 0.543865 10.3 0.499004 10.4083C0.454144 10.5166 0.431054 10.6326 0.431054 10.7499C0.431054 10.8671 0.454144 10.9832 0.499004 11.0915C0.543865 11.1998 0.609619 11.2982 0.69251 11.3811C0.775402 11.464 0.873809 11.5297 0.982112 11.5746C1.09042 11.6194 1.2065 11.6425 1.32372 11.6425C1.44095 11.6425 1.55703 11.6194 1.66533 11.5746C1.77363 11.5297 1.87204 11.464 1.95493 11.3811L1.95495 11.3811L6.07372 7.26073L10.1925 11.3811L10.1925 11.3811C10.2754 11.464 10.3738 11.5297 10.4821 11.5746C10.5904 11.6194 10.7065 11.6425 10.8237 11.6425C10.9409 11.6425 11.057 11.6194 11.1653 11.5746C11.2736 11.5297 11.372 11.464 11.4549 11.3811C11.5378 11.2982 11.6036 11.1998 11.6484 11.0915C11.6933 10.9832 11.7164 10.8671 11.7164 10.7499C11.7164 10.6326 11.6933 10.5166 11.6484 10.4083C11.6036 10.3 11.5378 10.2016 11.4549 10.1187L11.4549 10.1186L7.33459 5.99987L11.4549 1.88109L11.4549 1.88108C11.5378 1.79819 11.6036 1.69978 11.6484 1.59148C11.6933 1.48317 11.7164 1.36709 11.7164 1.24987C11.7164 1.13264 11.6933 1.01656 11.6484 0.90826C11.6036 0.799956 11.5378 0.70155 11.4549 0.618658C11.372 0.535766 11.2736 0.470013 11.1653 0.425152C11.057 0.380291 10.9409 0.357202 10.8237 0.357202C10.7065 0.357202 10.5904 0.380291 10.4821 0.425152C10.3738 0.470013 10.2754 0.535766 10.1925 0.618658L10.1925 0.618671L6.07372 4.739L1.95502 0.618747C1.87219 0.53571 1.7738 0.469828 1.66547 0.424876C1.55714 0.379925 1.44101 0.356787 1.32372 0.356787C1.20644 0.356787 1.0903 0.379925 0.981974 0.424876C0.873646 0.469828 0.775249 0.53571 0.692421 0.618747L0.763221 0.689369L0.6926 0.618569C0.609562 0.701397 0.54368 0.799793 0.498729 0.908122C0.453777 1.01645 0.43064 1.13258 0.43064 1.24987C0.43064 1.36715 0.453777 1.48329 0.498729 1.59162C0.54368 1.69994 0.609562 1.79834 0.6926 1.88117L4.81286 5.99987Z" fill="#0B2E4E" stroke="#0B2E4E" stroke-width="0.2"/>
</g>
<defs>
<clipPath id="clip0_197_2995">
<rect width="12" height="12" fill="white" transform="translate(0.0737305)"/>
</clipPath>
</defs>
</svg>
