<svg width="26" height="26" viewBox="0 0 26 26" fill="none" xmlns="http://www.w3.org/2000/svg">
<path d="M13 0C20.1004 0 25.8572 5.75679 25.8572 12.8571C25.8572 19.9575 20.1004 25.7143 13 25.7143C5.89967 25.7143 0.142883 19.9575 0.142883 12.8571C0.142883 5.75679 5.89967 0 13 0ZM13 1.60714C6.78681 1.60714 1.75003 6.64393 1.75003 12.8571C1.75003 19.0704 6.78681 24.1071 13 24.1071C19.2132 24.1071 24.25 19.0704 24.25 12.8571C24.25 6.64393 19.2132 1.60714 13 1.60714ZM13 17.6786C13.3552 17.6786 13.6959 17.8197 13.947 18.0708C14.1982 18.322 14.3393 18.6627 14.3393 19.0179C14.3393 19.3731 14.1982 19.7137 13.947 19.9649C13.6959 20.216 13.3552 20.3571 13 20.3571C12.6448 20.3571 12.3042 20.216 12.053 19.9649C11.8018 19.7137 11.6607 19.3731 11.6607 19.0179C11.6607 18.6627 11.8018 18.322 12.053 18.0708C12.3042 17.8197 12.6448 17.6786 13 17.6786ZM13 5.08929C15.1032 5.08929 17.0179 6.9375 17.0179 9.10714C17.0179 10.6404 16.5197 11.5436 15.3615 12.6493L15.1504 12.8464L14.9318 13.0468C14.0682 13.8375 13.8036 14.2521 13.8036 15C13.8036 15.2131 13.7189 15.4175 13.5682 15.5682C13.4175 15.7189 13.2131 15.8036 13 15.8036C12.7869 15.8036 12.5825 15.7189 12.4318 15.5682C12.2811 15.4175 12.1965 15.2131 12.1965 15C12.1965 13.7689 12.6229 13.0264 13.6354 12.0589L14.2461 11.4932C15.114 10.6661 15.4107 10.1164 15.4107 9.10714C15.4107 7.83857 14.2279 6.69643 13 6.69643C11.7722 6.69643 10.5893 7.83857 10.5893 9.10714C10.5893 9.32026 10.5046 9.52465 10.354 9.67535C10.2033 9.82605 9.99886 9.91071 9.78574 9.91071C9.57262 9.91071 9.36823 9.82605 9.21753 9.67535C9.06683 9.52465 8.98217 9.32026 8.98217 9.10714C8.98217 6.9375 10.8968 5.08929 13 5.08929Z" fill="#0B2E4E"/>
</svg>
