<svg width="27" height="27" viewBox="0 0 27 27" fill="none" xmlns="http://www.w3.org/2000/svg">
<path d="M12.9168 17.35H13.0168V17.25V8.68329H21.5835C23.9224 8.68329 25.8168 10.5777 25.8168 12.9166V22.5666H23.8502V19.4166V19.3166H23.7502H4.25016H4.15016V19.4166V22.5666H2.1835V6.51663H4.15016V17.25V17.35H4.25016H12.9168ZM23.7502 17.35H23.8502V17.25V12.9166C23.8502 11.6697 22.8304 10.65 21.5835 10.65H15.0835H14.9835V10.75V17.25V17.35H15.0835H23.7502ZM11.7335 12.9166C11.7335 14.6597 10.3266 16.0666 8.5835 16.0666C6.84039 16.0666 5.4335 14.6597 5.4335 12.9166C5.4335 11.1735 6.84039 9.76663 8.5835 9.76663C10.3266 9.76663 11.7335 11.1735 11.7335 12.9166ZM9.76683 12.9166C9.76683 12.2656 9.23456 11.7333 8.5835 11.7333C7.93243 11.7333 7.40016 12.2656 7.40016 12.9166C7.40016 13.5677 7.93243 14.1 8.5835 14.1C9.23456 14.1 9.76683 13.5677 9.76683 12.9166Z" fill="#0B2E4E" stroke="white" stroke-width="0.2"/>
</svg>
