<svg width="36" height="36" viewBox="0 0 36 36" fill="none" xmlns="http://www.w3.org/2000/svg">
<g opacity="0.6">
<path d="M18 3.83325C10.18 3.83325 3.83334 10.1799 3.83334 17.9999C3.83334 25.8199 10.18 32.1666 18 32.1666C25.82 32.1666 32.1667 25.8199 32.1667 17.9999C32.1667 10.1799 25.82 3.83325 18 3.83325ZM18 8.08325C20.3517 8.08325 22.25 9.98159 22.25 12.3333C22.25 14.6849 20.3517 16.5833 18 16.5833C15.6483 16.5833 13.75 14.6849 13.75 12.3333C13.75 9.98159 15.6483 8.08325 18 8.08325ZM18 28.1999C16.3168 28.1999 14.6598 27.7834 13.1766 26.9874C11.6935 26.1915 10.4304 25.0409 9.5 23.6383C9.5425 20.8191 15.1667 19.2749 18 19.2749C20.8192 19.2749 26.4575 20.8191 26.5 23.6383C25.5696 25.0409 24.3065 26.1915 22.8234 26.9874C21.3402 27.7834 19.6832 28.1999 18 28.1999Z" fill="#0B2E4E"/>
</g>
</svg>
